<svg xmlns="http://www.w3.org/2000/svg" viewBox="0 0 96 96" width="96" height="96"><defs><linearGradient id="g" x1="0" y1="0" x2="0" y2="1"><stop offset="0" stop-color="#7a4a9a"/><stop offset="1" stop-color="#36204a"/></linearGradient><radialGradient id="h" cx=".5" cy=".38" r=".62"><stop offset="0" stop-color="#fff" stop-opacity=".28"/><stop offset="1" stop-color="#fff" stop-opacity="0"/></radialGradient></defs><rect x="2" y="2" width="92" height="92" rx="16" fill="url(#g)"/><rect x="2" y="2" width="92" height="92" rx="16" fill="url(#h)"/><ellipse cx="48" cy="80.0" rx="22.5" ry="5" fill="#000" opacity=".28"/><g stroke-linejoin="round" stroke-width="0.90"><polygon points="69.0,66.8 69.0,27.7 51.5,39.8 51.5,79.0" fill="#1d1916" stroke="#0d0b0a"/><polygon points="40.6,22.9 40.6,13.8 38.9,15.0 38.9,24.0" fill="#45494d" stroke="#1f2123"/><polygon points="27.0,70.3 51.5,79.0 51.5,39.8 27.0,31.1" fill="#2f2824" stroke="#151210"/><polygon points="36.6,23.2 38.9,24.0 38.9,15.0 36.6,14.2" fill="#6f767c" stroke="#323538"/><polygon points="44.5,19.0 27.0,31.1 51.5,39.8 69.0,27.7" fill="#39312b" stroke="#1a1613"/><polygon points="38.2,13.0 36.6,14.2 38.9,15.0 40.6,13.8" fill="#878e96" stroke="#3d4044"/><polygon points="44.1,14.2 24.6,27.8 51.9,37.5 71.4,23.9" fill="#878e96" stroke="#3d4044"/><polygon points="33.1,58.0 43.4,61.6 43.4,47.6 33.1,43.9" fill="#b5881a" stroke="#513d0c"/><polygon points="44.8,60.7 44.8,46.6 43.4,47.6 43.4,61.6" fill="#705410" stroke="#322607"/><polygon points="34.4,43.0 33.1,43.9 43.4,47.6 44.8,46.6" fill="#dba41f" stroke="#634a0e"/><polygon points="71.4,28.0 71.4,23.9 51.9,37.5 51.9,41.5" fill="#45494d" stroke="#1f2123"/><polygon points="59.4,29.6 59.4,20.5 57.8,21.7 57.8,30.7" fill="#45494d" stroke="#1f2123"/><polygon points="55.4,29.9 57.8,30.7 57.8,21.7 55.4,20.9" fill="#6f767c" stroke="#323538"/><polygon points="24.6,31.8 51.9,41.5 51.9,37.5 24.6,27.8" fill="#6f767c" stroke="#323538"/><polygon points="57.1,19.7 55.4,20.9 57.8,21.7 59.4,20.5" fill="#878e96" stroke="#3d4044"/></g><rect x="3.5" y="3.5" width="89" height="89" rx="14.5" fill="none" stroke="#fff" stroke-opacity=".35" stroke-width="2"/><rect x="1" y="1" width="94" height="94" rx="17" fill="none" stroke="#000" stroke-opacity=".55" stroke-width="2"/></svg>