<svg xmlns="http://www.w3.org/2000/svg" viewBox="0 0 96 96" width="96" height="96"><defs><linearGradient id="g" x1="0" y1="0" x2="0" y2="1"><stop offset="0" stop-color="#2e8a80"/><stop offset="1" stop-color="#13403c"/></linearGradient><radialGradient id="h" cx=".5" cy=".38" r=".62"><stop offset="0" stop-color="#fff" stop-opacity=".28"/><stop offset="1" stop-color="#fff" stop-opacity="0"/></radialGradient></defs><rect x="2" y="2" width="92" height="92" rx="16" fill="url(#g)"/><rect x="2" y="2" width="92" height="92" rx="16" fill="url(#h)"/><ellipse cx="48" cy="80.0" rx="32.4" ry="5" fill="#000" opacity=".28"/><g stroke-linejoin="round" stroke-width="0.87"><polygon points="44.1,51.7 44.1,18.2 22.8,33.1 22.8,66.6" fill="#45494d" stroke="#1f2123"/><polygon points="54.7,34.2 61.0,36.4 61.0,30.5 54.7,28.3" fill="#6f767c" stroke="#323538"/><polygon points="55.8,27.5 54.7,28.3 61.0,30.5 62.1,29.7" fill="#878e96" stroke="#3d4044"/><polygon points="62.1,35.6 62.1,29.7 61.0,30.5 61.0,36.4" fill="#45494d" stroke="#1f2123"/><polygon points="41.8,17.4 20.4,32.2 22.8,33.1 44.1,18.2" fill="#878e96" stroke="#3d4044"/><polygon points="20.4,65.7 22.8,66.6 22.8,33.1 20.4,32.2" fill="#6f767c" stroke="#323538"/><polygon points="36.5,17.8 16.3,31.8 59.5,47.2 79.7,33.1" fill="#9c7743" stroke="#46361e"/><polygon points="75.6,62.9 75.6,29.4 54.2,44.2 54.2,77.7" fill="#45494d" stroke="#1f2123"/><polygon points="36.2,13.0 14.3,28.2 59.8,44.4 81.7,29.2" fill="#6b4a2d" stroke="#302114"/><polygon points="16.3,63.7 59.5,79.0 59.5,47.2 16.3,31.8" fill="#816338" stroke="#3a2d19"/><polygon points="79.7,64.9 79.7,33.1 59.5,47.2 59.5,79.0" fill="#503d23" stroke="#241b10"/><polygon points="73.2,28.5 51.9,43.4 54.2,44.2 75.6,29.4" fill="#878e96" stroke="#3d4044"/><polygon points="51.9,76.9 54.2,77.7 54.2,44.2 51.9,43.4" fill="#6f767c" stroke="#323538"/><polygon points="14.3,32.4 59.8,48.6 59.8,44.4 14.3,28.2" fill="#593d25" stroke="#281b11"/><polygon points="81.7,33.4 81.7,29.2 59.8,44.4 59.8,48.6" fill="#372617" stroke="#19110a"/></g><rect x="3.5" y="3.5" width="89" height="89" rx="14.5" fill="none" stroke="#fff" stroke-opacity=".35" stroke-width="2"/><rect x="1" y="1" width="94" height="94" rx="17" fill="none" stroke="#000" stroke-opacity=".55" stroke-width="2"/></svg>