<svg xmlns="http://www.w3.org/2000/svg" viewBox="0 0 96 96" width="96" height="96"><defs><linearGradient id="g" x1="0" y1="0" x2="0" y2="1"><stop offset="0" stop-color="#9a3a32"/><stop offset="1" stop-color="#4a1a18"/></linearGradient><radialGradient id="h" cx=".5" cy=".38" r=".62"><stop offset="0" stop-color="#fff" stop-opacity=".28"/><stop offset="1" stop-color="#fff" stop-opacity="0"/></radialGradient></defs><rect x="2" y="2" width="92" height="92" rx="16" fill="url(#g)"/><rect x="2" y="2" width="92" height="92" rx="16" fill="url(#h)"/><ellipse cx="48" cy="80.0" rx="23.9" ry="5" fill="#000" opacity=".28"/><g stroke-linejoin="round" stroke-width="0.51"><polygon points="32.9,62.5 32.9,20.3 29.6,22.7 29.6,64.8" fill="#372617" stroke="#19110a"/><polygon points="24.9,63.1 29.6,64.8 29.6,22.7 24.9,21.0" fill="#593d25" stroke="#281b11"/><polygon points="39.6,64.9 39.6,22.7 36.2,25.0 36.2,67.2" fill="#372617" stroke="#19110a"/><polygon points="31.6,65.5 36.2,67.2 36.2,25.0 31.6,23.4" fill="#593d25" stroke="#281b11"/><polygon points="46.2,67.2 46.2,25.1 42.9,27.4 42.9,69.5" fill="#372617" stroke="#19110a"/><polygon points="38.3,67.9 42.9,69.5 42.9,27.4 38.3,25.7" fill="#593d25" stroke="#281b11"/><polygon points="23.1,51.6 69.6,68.0 69.6,64.6 23.1,48.1" fill="#7c5b39" stroke="#38291a"/><polygon points="23.9,47.5 23.1,48.1 69.6,64.6 70.4,64.0" fill="#966e44" stroke="#44321f"/><polygon points="28.2,18.7 24.9,21.0 29.6,22.7 32.9,20.3" fill="#6b4a2d" stroke="#302114"/><polygon points="52.9,69.6 52.9,27.4 49.6,29.8 49.6,71.9" fill="#372617" stroke="#19110a"/><polygon points="26.9,20.7 27.5,22.4 27.5,15.0 26.9,13.3" fill="#634429" stroke="#2d1f12"/><polygon points="44.9,70.2 49.6,71.9 49.6,29.8 44.9,28.1" fill="#593d25" stroke="#281b11"/><polygon points="27.5,22.4 30.9,22.1 30.9,14.7 27.5,15.0" fill="#3b2919" stroke="#1b120b"/><polygon points="26.9,13.3 27.5,15.0 30.9,14.7 30.3,13.0" fill="#6b4a2d" stroke="#302114"/><polygon points="34.9,21.1 31.6,23.4 36.2,25.0 39.6,22.7" fill="#6b4a2d" stroke="#302114"/><polygon points="59.6,72.0 59.6,29.8 56.3,32.1 56.3,74.3" fill="#372617" stroke="#19110a"/><polygon points="33.6,23.1 34.2,24.8 34.2,17.3 33.6,15.6" fill="#634429" stroke="#2d1f12"/><polygon points="51.6,72.6 56.3,74.3 56.3,32.1 51.6,30.5" fill="#593d25" stroke="#281b11"/><polygon points="34.2,24.8 37.5,24.5 37.5,17.0 34.2,17.3" fill="#3b2919" stroke="#1b120b"/><polygon points="33.6,15.6 34.2,17.3 37.5,17.0 37.0,15.4" fill="#6b4a2d" stroke="#302114"/><polygon points="41.6,23.4 38.3,25.7 42.9,27.4 46.2,25.1" fill="#6b4a2d" stroke="#302114"/><polygon points="23.1,33.0 69.6,49.5 69.6,46.0 23.1,29.5" fill="#7c5b39" stroke="#38291a"/><polygon points="66.3,74.3 66.3,32.2 62.9,34.5 62.9,76.6" fill="#372617" stroke="#19110a"/><polygon points="40.3,25.5 40.8,27.1 40.8,19.7 40.3,18.0" fill="#634429" stroke="#2d1f12"/><polygon points="23.9,28.9 23.1,29.5 69.6,46.0 70.4,45.4" fill="#966e44" stroke="#44321f"/><polygon points="58.3,75.0 62.9,76.6 62.9,34.5 58.3,32.8" fill="#593d25" stroke="#281b11"/><polygon points="40.8,27.1 44.2,26.9 44.2,19.4 40.8,19.7" fill="#3b2919" stroke="#1b120b"/><polygon points="40.3,18.0 40.8,19.7 44.2,19.4 43.7,17.7" fill="#6b4a2d" stroke="#302114"/><polygon points="48.3,25.8 44.9,28.1 49.6,29.8 52.9,27.4" fill="#6b4a2d" stroke="#302114"/><polygon points="70.4,67.5 70.4,64.0 69.6,64.6 69.6,68.0" fill="#4d3923" stroke="#231a10"/><polygon points="72.9,76.7 72.9,34.5 69.6,36.9 69.6,79.0" fill="#372617" stroke="#19110a"/><polygon points="46.9,27.8 47.5,29.5 47.5,22.1 46.9,20.4" fill="#634429" stroke="#2d1f12"/><polygon points="65.0,77.4 69.6,79.0 69.6,36.9 65.0,35.2" fill="#593d25" stroke="#281b11"/><polygon points="47.5,29.5 50.9,29.2 50.9,21.8 47.5,22.1" fill="#3b2919" stroke="#1b120b"/><polygon points="46.9,20.4 47.5,22.1 50.9,21.8 50.3,20.1" fill="#6b4a2d" stroke="#302114"/><polygon points="54.9,28.2 51.6,30.5 56.3,32.1 59.6,29.8" fill="#6b4a2d" stroke="#302114"/><polygon points="53.6,30.2 54.2,31.9 54.2,24.4 53.6,22.7" fill="#634429" stroke="#2d1f12"/><polygon points="54.2,31.9 57.6,31.6 57.6,24.1 54.2,24.4" fill="#3b2919" stroke="#1b120b"/><polygon points="53.6,22.7 54.2,24.4 57.6,24.1 57.0,22.5" fill="#6b4a2d" stroke="#302114"/><polygon points="61.6,30.5 58.3,32.8 62.9,34.5 66.3,32.2" fill="#6b4a2d" stroke="#302114"/><polygon points="60.3,32.6 60.9,34.2 60.9,26.8 60.3,25.1" fill="#634429" stroke="#2d1f12"/><polygon points="70.4,48.9 70.4,45.4 69.6,46.0 69.6,49.5" fill="#4d3923" stroke="#231a10"/><polygon points="60.9,34.2 64.2,34.0 64.2,26.5 60.9,26.8" fill="#3b2919" stroke="#1b120b"/><polygon points="60.3,25.1 60.9,26.8 64.2,26.5 63.7,24.8" fill="#6b4a2d" stroke="#302114"/><polygon points="68.3,32.9 65.0,35.2 69.6,36.9 72.9,34.5" fill="#6b4a2d" stroke="#302114"/><polygon points="67.0,34.9 67.5,36.6 67.5,29.2 67.0,27.5" fill="#634429" stroke="#2d1f12"/><polygon points="67.5,36.6 70.9,36.3 70.9,28.9 67.5,29.2" fill="#3b2919" stroke="#1b120b"/><polygon points="67.0,27.5 67.5,29.2 70.9,28.9 70.3,27.2" fill="#6b4a2d" stroke="#302114"/></g><rect x="3.5" y="3.5" width="89" height="89" rx="14.5" fill="none" stroke="#fff" stroke-opacity=".35" stroke-width="2"/><rect x="1" y="1" width="94" height="94" rx="17" fill="none" stroke="#000" stroke-opacity=".55" stroke-width="2"/></svg>