<svg xmlns="http://www.w3.org/2000/svg" viewBox="0 0 96 96" width="96" height="96"><defs><linearGradient id="g" x1="0" y1="0" x2="0" y2="1"><stop offset="0" stop-color="#7a4a9a"/><stop offset="1" stop-color="#36204a"/></linearGradient><radialGradient id="h" cx=".5" cy=".38" r=".62"><stop offset="0" stop-color="#fff" stop-opacity=".28"/><stop offset="1" stop-color="#fff" stop-opacity="0"/></radialGradient></defs><rect x="2" y="2" width="92" height="92" rx="16" fill="url(#g)"/><rect x="2" y="2" width="92" height="92" rx="16" fill="url(#h)"/><ellipse cx="48" cy="80.0" rx="14.8" ry="5" fill="#000" opacity=".28"/><g stroke-linejoin="round" stroke-width="0.90"><polygon points="38.9,75.0 40.2,76.7 38.3,73.7 36.8,71.7" fill="#793d1d" stroke="#361b0d"/><polygon points="55.5,76.9 57.0,75.3 59.1,72.0 57.3,74.0" fill="#603017" stroke="#2b160a"/><polygon points="43.5,78.3 46.3,79.0 45.9,78.7 42.6,78.0" fill="#603017" stroke="#2b160a"/><polygon points="49.3,79.0 52.1,78.5 52.9,78.2 49.5,78.8" fill="#603017" stroke="#2b160a"/><polygon points="46.3,79.0 49.3,79.0 49.5,78.8 45.9,78.7" fill="#603017" stroke="#2b160a"/><polygon points="40.2,76.7 42.6,78.0 41.4,75.3 38.3,73.7" fill="#72391b" stroke="#331a0c"/><polygon points="52.9,78.2 55.5,76.9 57.3,74.0 54.0,75.5" fill="#603017" stroke="#2b160a"/><polygon points="36.8,71.7 38.3,73.7 36.0,69.0 34.0,66.4" fill="#81411f" stroke="#3a1d0e"/><polygon points="57.3,74.0 59.1,72.0 61.8,66.9 59.5,69.4" fill="#603017" stroke="#2b160a"/><polygon points="42.6,78.0 45.9,78.7 45.4,76.3 41.4,75.3" fill="#613017" stroke="#2c160a"/><polygon points="33.0,58.4 32.8,61.4 33.7,56.2 33.9,53.4" fill="#b65b2c" stroke="#522914"/><polygon points="49.5,78.8 52.9,78.2 54.0,75.5 49.9,76.3" fill="#603017" stroke="#2b160a"/><polygon points="45.9,78.7 49.5,78.8 49.9,76.3 45.4,76.3" fill="#603017" stroke="#2b160a"/><polygon points="63.0,61.9 63.2,58.9 62.3,53.8 62.1,56.6" fill="#603017" stroke="#2b160a"/><polygon points="38.2,47.4 36.3,49.5 38.7,46.9 40.2,45.2" fill="#c5632f" stroke="#592d15"/><polygon points="59.8,49.9 58.2,47.7 56.1,45.5 57.4,47.2" fill="#603017" stroke="#2b160a"/><polygon points="38.3,73.7 41.4,75.3 39.8,71.0 36.0,69.0" fill="#7a3d1d" stroke="#371b0d"/><polygon points="34.0,66.4 36.0,69.0 34.9,64.2 32.8,61.4" fill="#984c24" stroke="#442210"/><polygon points="54.0,75.5 57.3,74.0 59.5,69.4 55.5,71.3" fill="#603017" stroke="#2b160a"/><polygon points="59.5,69.4 61.8,66.9 63.0,61.9 60.5,64.6" fill="#603017" stroke="#2b160a"/><polygon points="33.9,53.4 33.7,56.2 36.2,51.8 36.3,49.5" fill="#ca6530" stroke="#5b2d16"/><polygon points="39.1,59.7 45.4,61.0 52.2,60.8 58.2,59.2 62.2,56.4 63.4,53.0 61.5,49.8 56.9,47.2 50.6,45.9 43.8,46.1 37.8,47.7 33.8,50.5 32.6,53.9 34.5,57.1" fill="#773315" stroke="#361709"/><polygon points="62.1,56.6 62.3,53.8 59.8,49.9 59.7,52.2" fill="#603017" stroke="#2b160a"/><polygon points="41.4,75.3 45.4,76.3 44.8,72.1 39.8,71.0" fill="#683419" stroke="#2f170b"/><polygon points="62.2,58.3 63.4,54.9 63.4,53.0 62.2,56.4" fill="#3d1a0b" stroke="#1b0c05"/><polygon points="49.9,76.3 54.0,75.5 55.5,71.3 50.3,72.2" fill="#603017" stroke="#2b160a"/><polygon points="36.3,49.5 36.2,51.8 38.6,48.7 38.7,46.9" fill="#d16832" stroke="#5e2f17"/><polygon points="32.8,61.4 34.9,64.2 35.7,58.8 33.7,56.2" fill="#b95c2c" stroke="#532914"/><polygon points="45.4,76.3 49.9,76.3 50.3,72.2 44.8,72.1" fill="#603017" stroke="#2b160a"/><polygon points="59.7,52.2 59.8,49.9 57.4,47.2 57.3,49.0" fill="#603017" stroke="#2b160a"/><polygon points="60.5,64.6 63.0,61.9 62.1,56.6 59.8,59.2" fill="#603017" stroke="#2b160a"/><polygon points="32.6,55.7 34.5,59.0 34.5,57.1 32.6,53.9" fill="#6e2f14" stroke="#321509"/><polygon points="36.0,69.0 39.8,71.0 39.1,66.4 34.9,64.2" fill="#904822" stroke="#41200f"/><polygon points="55.5,71.3 59.5,69.4 60.5,64.6 56.2,66.6" fill="#603017" stroke="#2b160a"/><polygon points="33.7,56.2 35.7,58.8 37.8,54.0 36.2,51.8" fill="#cd6631" stroke="#5c2e16"/><polygon points="59.8,59.2 62.1,56.6 59.7,52.2 57.8,54.3" fill="#603017" stroke="#2b160a"/><polygon points="37.7,26.2 37.7,28.6 37.7,30.6 37.7,28.3" fill="#578e39" stroke="#27401a"/><polygon points="46.8,23.1 49.0,24.2 47.1,22.9 45.7,22.4" fill="#40692a" stroke="#1d2f13"/><polygon points="35.4,42.7 35.2,45.2 35.5,44.2 35.7,41.7" fill="#be5f2e" stroke="#562b15"/><polygon points="42.2,22.4 40.8,23.0 38.9,24.3 41.2,23.2" fill="#65a542" stroke="#2d4a1e"/><polygon points="36.2,51.8 37.8,54.0 39.9,50.5 38.6,48.7" fill="#d36a33" stroke="#5f3017"/><polygon points="41.9,47.7 46.2,48.6 50.9,48.4 55.0,47.3 57.7,45.4 58.5,43.1 57.2,40.9 54.1,39.2 49.8,38.3 45.1,38.4 41.0,39.5 38.3,41.4 37.5,43.7 38.8,45.9" fill="#39312b" stroke="#1a1613"/><polygon points="44.0,34.4 44.0,34.7 45.7,34.4 47.1,33.9" fill="#315020" stroke="#16240e"/><polygon points="40.9,33.9 42.3,34.4 44.0,34.7 44.0,34.4" fill="#315020" stroke="#16240e"/><polygon points="60.6,45.6 60.8,43.1 60.5,42.1 60.3,44.6" fill="#603017" stroke="#2b160a"/><polygon points="57.8,54.3 59.7,52.2 57.3,49.0 55.8,50.7" fill="#663318" stroke="#2e170b"/><polygon points="39.8,71.0 44.8,72.1 44.5,67.6 39.1,66.4" fill="#7d3f1e" stroke="#381c0e"/><polygon points="49.0,25.9 50.3,28.2 50.3,26.2 49.0,24.2" fill="#315020" stroke="#16240e"/><polygon points="44.0,23.1 45.7,22.4 44.0,22.1" fill="#5a933b" stroke="#29421b"/><polygon points="44.0,23.1 44.0,22.1 42.2,22.4" fill="#5f9b3e" stroke="#2b461c"/><polygon points="38.9,24.3 37.7,26.2 37.7,28.3 39.0,25.9" fill="#68a944" stroke="#2f4c1f"/><polygon points="34.9,64.2 39.1,66.4 39.6,60.9 35.7,58.8" fill="#b0582a" stroke="#4f2813"/><polygon points="50.3,72.2 55.5,71.3 56.2,66.6 50.5,67.7" fill="#603017" stroke="#2b160a"/><polygon points="47.9,32.2 47.1,33.9 49.0,32.5 50.3,30.6" fill="#315020" stroke="#16240e"/><polygon points="37.7,30.6 39.0,32.6 40.9,33.9 40.2,32.3" fill="#3c6327" stroke="#1b2d12"/><polygon points="38.6,48.7 39.9,50.5 39.6,48.3 38.3,46.5" fill="#a15027" stroke="#482412"/><polygon points="57.7,47.0 58.5,44.8 58.5,43.1 57.7,45.4" fill="#1d1916" stroke="#0d0b0a"/><polygon points="44.0,23.1 46.8,23.1 45.7,22.4" fill="#578e39" stroke="#27401a"/><polygon points="44.0,23.1 42.2,22.4 41.2,23.2" fill="#64a341" stroke="#2d491d"/><polygon points="56.2,66.6 60.5,64.6 59.8,59.2 55.7,61.1" fill="#603017" stroke="#2b160a"/><polygon points="58.2,61.0 62.2,58.3 62.2,56.4 58.2,59.2" fill="#3d1a0b" stroke="#1b0c05"/><polygon points="55.8,50.7 57.3,49.0 57.6,46.8 56.0,48.6" fill="#603017" stroke="#2b160a"/><polygon points="46.8,24.0 49.0,25.9 49.0,24.2 46.8,23.1" fill="#3f6729" stroke="#1c2e12"/><polygon points="44.8,72.1 50.3,72.2 50.5,67.7 44.5,67.6" fill="#643218" stroke="#2d170b"/><polygon points="41.2,23.2 38.9,24.3 39.0,25.9 41.2,24.1" fill="#6db247" stroke="#315020"/><polygon points="37.5,45.3 38.8,47.5 38.8,45.9 37.5,43.7" fill="#342d27" stroke="#171412"/><polygon points="44.0,23.1 46.8,24.0 46.8,23.1" fill="#578d38" stroke="#273f19"/><polygon points="44.0,23.1 41.2,23.2 41.2,24.1" fill="#67a743" stroke="#2e4b1e"/><polygon points="35.7,58.8 39.6,60.9 41.0,55.7 37.8,54.0" fill="#c5632f" stroke="#592d15"/><polygon points="47.9,29.9 47.9,32.2 50.3,30.6 50.3,28.2" fill="#315020" stroke="#16240e"/><polygon points="34.5,59.0 39.1,61.5 39.1,59.7 34.5,57.1" fill="#682d13" stroke="#2f1409"/><polygon points="37.7,28.3 37.7,30.6 40.2,32.3 40.2,29.9" fill="#558b38" stroke="#263f19"/><polygon points="44.0,32.9 44.0,34.4 47.1,33.9 47.9,32.2" fill="#315020" stroke="#16240e"/><polygon points="40.2,32.3 40.9,33.9 44.0,34.4 44.0,32.9" fill="#315020" stroke="#16240e"/><polygon points="55.7,61.1 59.8,59.2 57.8,54.3 54.4,55.9" fill="#693419" stroke="#2f170b"/><polygon points="37.8,54.0 41.0,55.7 42.5,51.8 39.9,50.5" fill="#cc6631" stroke="#5c2e16"/><polygon points="44.0,23.1 45.7,24.8 46.8,24.0" fill="#59923a" stroke="#28421a"/><polygon points="44.0,23.1 41.2,24.1 42.3,24.8" fill="#66a743" stroke="#2e4b1e"/><polygon points="54.4,55.9 57.8,54.3 55.8,50.7 53.1,52.0" fill="#793c1d" stroke="#361b0d"/><polygon points="47.1,27.2 47.9,29.9 50.3,28.2 49.0,25.9" fill="#315020" stroke="#16240e"/><polygon points="39.0,25.9 37.7,28.3 40.2,29.9 40.9,27.2" fill="#66a743" stroke="#2e4b1e"/><polygon points="39.1,66.4 44.5,67.6 44.7,62.0 39.6,60.9" fill="#9e4f26" stroke="#472411"/><polygon points="45.7,24.8 47.1,27.2 49.0,25.9 46.8,24.0" fill="#47742e" stroke="#203415"/><polygon points="41.2,24.1 39.0,25.9 40.9,27.2 42.3,24.8" fill="#6cb047" stroke="#314f20"/><polygon points="44.0,23.1 44.0,25.1 45.7,24.8" fill="#5e9a3d" stroke="#2a451b"/><polygon points="44.0,23.1 42.3,24.8 44.0,25.1" fill="#63a241" stroke="#2d491d"/><polygon points="39.9,50.5 42.5,51.8 42.3,49.7 39.6,48.3" fill="#984c24" stroke="#442210"/><polygon points="35.2,45.2 37.0,47.5 37.3,46.5 35.5,44.2" fill="#c1612e" stroke="#572c15"/><polygon points="50.5,67.7 56.2,66.6 55.7,61.1 50.4,62.1" fill="#673319" stroke="#2e170b"/><polygon points="53.1,52.0 55.8,50.7 56.0,48.6 53.2,49.9" fill="#603017" stroke="#2b160a"/><polygon points="58.5,47.9 60.6,45.6 60.3,44.6 58.3,46.8" fill="#603017" stroke="#2b160a"/><polygon points="44.0,30.5 44.0,32.9 47.9,32.2 47.9,29.9" fill="#315020" stroke="#16240e"/><polygon points="40.2,29.9 40.2,32.3 44.0,32.9 44.0,30.5" fill="#46722e" stroke="#203315"/><polygon points="37.7,32.3 37.7,35.8 37.7,39.2 37.7,35.6" fill="#366d2e" stroke="#183115"/><polygon points="44.5,67.6 50.5,67.7 50.4,62.1 44.7,62.0" fill="#844220" stroke="#3b1e0e"/><polygon points="52.6,27.7 56.2,29.3 53.0,27.2 50.8,26.5" fill="#295323" stroke="#122510"/><polygon points="55.0,48.9 57.7,47.0 57.7,45.4 55.0,47.3" fill="#1d1916" stroke="#0d0b0a"/><polygon points="45.1,26.5 42.8,27.2 39.7,29.4 43.4,27.7" fill="#3f7f36" stroke="#1c3918"/><polygon points="44.0,25.1 44.0,27.7 47.1,27.2 45.7,24.8" fill="#558a37" stroke="#263e19"/><polygon points="42.3,24.8 40.9,27.2 44.0,27.7 44.0,25.1" fill="#63a141" stroke="#2d481d"/><polygon points="39.6,60.9 44.7,62.0 45.3,56.7 41.0,55.7" fill="#b45a2b" stroke="#512913"/><polygon points="41.0,55.7 45.3,56.7 45.8,52.6 42.5,51.8" fill="#bd5e2d" stroke="#552a14"/><polygon points="50.4,62.1 55.7,61.1 54.4,55.9 50.0,56.7" fill="#82411f" stroke="#3b1d0e"/><polygon points="44.0,27.7 44.0,30.5 47.9,29.9 47.1,27.2" fill="#446f2c" stroke="#1f3214"/><polygon points="52.2,62.7 58.2,61.0 58.2,59.2 52.2,60.8" fill="#3d1a0b" stroke="#1b0c05"/><polygon points="50.0,56.7 54.4,55.9 53.1,52.0 49.6,52.6" fill="#904822" stroke="#41200f"/><polygon points="40.9,27.2 40.2,29.9 44.0,30.5 44.0,27.7" fill="#59913a" stroke="#28411a"/><polygon points="38.8,47.5 41.9,49.3 41.9,47.7 38.8,45.9" fill="#322b26" stroke="#171311"/><polygon points="42.5,51.8 45.8,52.6 45.8,50.5 42.3,49.7" fill="#864320" stroke="#3c1e0e"/><polygon points="45.3,56.7 50.0,56.7 49.6,52.6 45.8,52.6" fill="#a85428" stroke="#4c2612"/><polygon points="39.1,61.5 45.4,62.9 45.4,61.0 39.1,59.7" fill="#5b2710" stroke="#291207"/><polygon points="49.6,52.6 53.1,52.0 53.2,49.9 49.6,50.6" fill="#603017" stroke="#2b160a"/><polygon points="44.7,62.0 50.4,62.1 50.0,56.7 45.3,56.7" fill="#9d4e26" stroke="#472311"/><polygon points="48.0,27.7 50.8,26.5 48.0,26.1" fill="#387230" stroke="#193316"/><polygon points="48.1,45.0 48.0,45.3 50.9,44.8 53.2,44.1" fill="#1f3e1a" stroke="#0e1c0c"/><polygon points="48.0,27.7 48.0,26.1 45.1,26.5" fill="#3b7732" stroke="#1b3617"/><polygon points="43.0,44.2 45.2,44.8 48.0,45.3 48.1,45.0" fill="#1f3e1a" stroke="#0e1c0c"/><polygon points="45.8,52.6 49.6,52.6 49.6,50.6 45.8,50.5" fill="#6c361a" stroke="#31180c"/><polygon points="56.3,32.0 58.3,35.5 58.3,32.2 56.2,29.3" fill="#1f3e1a" stroke="#0e1c0c"/><polygon points="39.7,29.4 37.7,32.3 37.7,35.6 39.8,32.0" fill="#418337" stroke="#1d3b19"/><polygon points="45.4,62.9 52.2,62.7 52.2,60.8 45.4,61.0" fill="#471e0d" stroke="#200e06"/><polygon points="47.4,21.5 47.4,23.9 47.4,25.7 47.4,23.3" fill="#366d2e" stroke="#183115"/><polygon points="48.0,27.7 52.6,27.7 50.8,26.5" fill="#376e2e" stroke="#193215"/><polygon points="54.4,41.8 53.2,44.1 56.3,42.0 58.3,39.1" fill="#1f3e1a" stroke="#0e1c0c"/><polygon points="48.0,27.7 45.1,26.5 43.4,27.7" fill="#3e7d35" stroke="#1c3818"/><polygon points="37.7,39.2 39.8,42.0 43.0,44.2 41.7,41.8" fill="#24491f" stroke="#10210e"/><polygon points="50.9,50.0 55.0,48.9 55.0,47.3 50.9,48.4" fill="#1d1916" stroke="#0d0b0a"/><polygon points="37.0,47.5 40.5,49.4 40.7,48.3 37.3,46.5" fill="#b95d2c" stroke="#532a14"/><polygon points="55.6,18.3 57.6,19.5 55.9,18.3 54.6,17.7" fill="#264d21" stroke="#11230f"/><polygon points="51.5,17.7 50.2,18.3 48.5,19.5 50.5,18.3" fill="#3f7e35" stroke="#1c3918"/><polygon points="53.1,29.3 53.1,29.7 54.7,29.4 55.9,28.8" fill="#1f3e1a" stroke="#0e1c0c"/><polygon points="50.3,28.8 51.5,29.5 53.1,29.7 53.1,29.3" fill="#1f3e1a" stroke="#0e1c0c"/><polygon points="36.5,22.4 36.5,23.4 36.5,24.2 36.5,23.3" fill="#cd477a" stroke="#5c2037"/><polygon points="41.9,49.3 46.2,50.2 46.2,48.6 41.9,47.7" fill="#2b2521" stroke="#13110f"/><polygon points="40.2,21.2 41.1,21.6 40.3,21.1 39.7,20.9" fill="#99355b" stroke="#451829"/><polygon points="38.3,20.9 37.8,21.1 37.0,21.7 37.9,21.2" fill="#ef538e" stroke="#6c2540"/><polygon points="54.8,49.6 58.5,47.9 58.3,46.8 54.7,48.5" fill="#603017" stroke="#2b160a"/><polygon points="52.6,29.2 56.3,32.0 56.2,29.3 52.6,27.7" fill="#295223" stroke="#122510"/><polygon points="43.4,27.7 39.7,29.4 39.8,32.0 43.4,29.2" fill="#44893a" stroke="#1f3e1a"/><polygon points="39.1,25.7 39.1,25.8 39.8,25.7 40.3,25.5" fill="#742845" stroke="#34121f"/><polygon points="37.8,25.5 38.4,25.7 39.1,25.8 39.1,25.7" fill="#742845" stroke="#34121f"/><polygon points="57.7,21.0 58.8,23.3 58.8,21.4 57.6,19.5" fill="#1f3e1a" stroke="#0e1c0c"/><polygon points="56.7,27.2 55.9,28.8 57.7,27.6 58.8,25.7" fill="#1f3e1a" stroke="#0e1c0c"/><polygon points="41.1,22.3 41.6,23.2 41.6,22.4 41.1,21.6" fill="#742845" stroke="#34121f"/><polygon points="39.0,21.2 39.7,20.9 39.0,20.8" fill="#d64a7f" stroke="#602139"/><polygon points="39.0,21.2 39.0,20.8 38.3,20.9" fill="#e14e86" stroke="#65233c"/><polygon points="48.5,19.5 47.4,21.5 47.4,23.3 48.5,21.0" fill="#408136" stroke="#1d3a18"/><polygon points="37.0,21.7 36.5,22.4 36.5,23.3 37.0,22.3" fill="#f65592" stroke="#6f2642"/><polygon points="47.4,25.7 48.5,27.7 50.3,28.8 49.6,27.2" fill="#274f21" stroke="#12240f"/><polygon points="40.7,24.9 40.3,25.5 41.1,25.0 41.6,24.2" fill="#742845" stroke="#34121f"/><polygon points="53.1,18.2 54.6,17.7 53.1,17.4" fill="#38702f" stroke="#193215"/><polygon points="53.1,18.2 53.1,17.4 51.5,17.7" fill="#3b7732" stroke="#1b3617"/><polygon points="36.5,24.2 37.0,25.0 37.8,25.5 37.5,24.9" fill="#8e3154" stroke="#401626"/><polygon points="46.2,50.2 50.9,50.0 50.9,48.4 46.2,48.6" fill="#221d1a" stroke="#0f0d0c"/><polygon points="39.0,21.2 40.2,21.2 39.7,20.9" fill="#ce477b" stroke="#5d2037"/><polygon points="39.0,21.2 38.3,20.9 37.9,21.2" fill="#ec518c" stroke="#6a243f"/><polygon points="40.2,21.6 41.1,22.3 41.1,21.6 40.2,21.2" fill="#97345a" stroke="#441729"/><polygon points="37.9,21.2 37.0,21.7 37.0,22.3 37.9,21.6" fill="#ff5999" stroke="#732845"/><polygon points="48.0,27.7 52.6,29.2 52.6,27.7" fill="#366e2e" stroke="#183215"/><polygon points="48.0,27.7 43.4,27.7 43.4,29.2" fill="#408036" stroke="#1d3a18"/><polygon points="39.0,21.2 40.2,21.6 40.2,21.2" fill="#cd477a" stroke="#5c2037"/><polygon points="39.0,21.2 37.9,21.2 37.9,21.6" fill="#f35490" stroke="#6d2641"/><polygon points="53.1,18.2 55.6,18.3 54.6,17.7" fill="#356c2e" stroke="#183115"/><polygon points="45.8,50.5 49.6,50.6 50.1,50.5 45.1,50.4" fill="#603017" stroke="#2b160a"/><polygon points="53.1,18.2 51.5,17.7 50.5,18.3" fill="#3e7e35" stroke="#1c3918"/><polygon points="38.0,20.8 38.0,21.2 38.1,21.6 38.1,21.1" fill="#d9b12c" stroke="#625014"/><polygon points="40.7,23.9 40.7,24.9 41.6,24.2 41.6,23.2" fill="#742845" stroke="#34121f"/><polygon points="39.5,20.3 39.8,20.5 39.5,20.3 39.3,20.1" fill="#997d1f" stroke="#45380e"/><polygon points="38.8,20.1 38.5,20.3 38.2,20.5 38.6,20.3" fill="#fbcd33" stroke="#715c17"/><polygon points="36.5,23.3 36.5,24.2 37.5,24.9 37.5,23.9" fill="#ca4678" stroke="#5b2036"/><polygon points="39.1,22.2 39.1,22.3 39.3,22.2 39.6,22.1" fill="#7b6419" stroke="#372d0b"/><polygon points="38.6,22.1 38.8,22.2 39.1,22.3 39.1,22.2" fill="#7b6419" stroke="#372d0b"/><polygon points="39.1,25.1 39.1,25.7 40.3,25.5 40.7,24.9" fill="#742845" stroke="#34121f"/><polygon points="37.5,24.9 37.8,25.5 39.1,25.7 39.1,25.1" fill="#742845" stroke="#34121f"/><polygon points="57.8,29.0 57.8,29.9 57.8,30.6 57.8,29.8" fill="#cd477a" stroke="#5c2037"/><polygon points="39.9,20.7 40.1,21.1 40.0,20.8 39.8,20.5" fill="#7b6419" stroke="#372d0b"/><polygon points="39.7,21.8 39.6,22.1 39.9,21.9 40.1,21.5" fill="#7b6419" stroke="#372d0b"/><polygon points="38.2,20.5 38.0,20.8 38.1,21.1 38.3,20.7" fill="#ffd234" stroke="#735f17"/><polygon points="38.1,21.6 38.3,21.9 38.6,22.1 38.4,21.8" fill="#9d8020" stroke="#473a0e"/><polygon points="39.0,20.2 39.3,20.1 39.0,20.1" fill="#e0b62e" stroke="#655215"/><polygon points="39.0,20.2 39.0,20.1 38.8,20.1" fill="#edc230" stroke="#6b5716"/><polygon points="61.1,27.9 61.9,28.3 61.2,27.8 60.7,27.7" fill="#9a355c" stroke="#451829"/><polygon points="59.5,27.7 59.0,27.9 58.3,28.3 59.1,27.9" fill="#f0538e" stroke="#6c2540"/><polygon points="55.6,19.1 57.7,21.0 57.6,19.5 55.6,18.3" fill="#264c20" stroke="#11220e"/><polygon points="49.1,15.4 49.1,16.5 49.1,17.4 49.1,16.3" fill="#cd477a" stroke="#5c2037"/><polygon points="39.0,21.2 39.8,21.9 40.2,21.6" fill="#d4497e" stroke="#5f2139"/><polygon points="39.0,21.2 37.9,21.6 38.4,21.9" fill="#f25390" stroke="#6d2541"/><polygon points="50.5,18.3 48.5,19.5 48.5,21.0 50.5,19.2" fill="#44893a" stroke="#1f3e1a"/><polygon points="39.0,20.2 39.5,20.3 39.3,20.1" fill="#d7af2c" stroke="#614f14"/><polygon points="39.0,20.2 38.8,20.1 38.6,20.3" fill="#facc33" stroke="#715c17"/><polygon points="39.5,20.4 39.9,20.7 39.8,20.5 39.5,20.3" fill="#977b1f" stroke="#44370e"/><polygon points="53.2,14.0 54.2,14.5 53.3,13.9 52.7,13.7" fill="#98355b" stroke="#441829"/><polygon points="38.6,20.3 38.2,20.5 38.3,20.7 38.6,20.4" fill="#ffde38" stroke="#736419"/><polygon points="51.1,13.7 50.5,13.9 49.6,14.5 50.7,14.0" fill="#ef538e" stroke="#6c2540"/><polygon points="40.3,22.8 40.7,23.9 41.6,23.2 41.1,22.3" fill="#742845" stroke="#34121f"/><polygon points="37.0,22.3 36.5,23.3 37.5,23.9 37.8,22.9" fill="#f35491" stroke="#6d2641"/><polygon points="39.0,20.2 39.5,20.4 39.5,20.3" fill="#d6af2c" stroke="#604f14"/><polygon points="39.0,20.2 38.6,20.3 38.6,20.4" fill="#ffd235" stroke="#735f18"/><polygon points="39.7,21.4 39.7,21.8 40.1,21.5 40.1,21.1" fill="#7b6419" stroke="#372d0b"/><polygon points="39.1,21.9 39.1,22.2 39.6,22.1 39.7,21.8" fill="#7b6419" stroke="#372d0b"/><polygon points="38.1,21.1 38.1,21.6 38.4,21.8 38.4,21.4" fill="#d5ae2c" stroke="#604e14"/><polygon points="39.8,21.9 40.3,22.8 41.1,22.3 40.2,21.6" fill="#aa3a65" stroke="#4d1a2d"/><polygon points="38.4,21.8 38.6,22.1 39.1,22.2 39.1,21.9" fill="#7b6419" stroke="#372d0b"/><polygon points="60.1,31.9 60.1,32.0 60.7,31.9 61.2,31.7" fill="#742845" stroke="#34121f"/><polygon points="37.9,21.6 37.0,22.3 37.8,22.9 38.4,21.9" fill="#ff5898" stroke="#732844"/><polygon points="59.0,31.7 59.5,31.9 60.1,32.0 60.1,31.9" fill="#742845" stroke="#34121f"/><polygon points="39.0,21.2 39.1,22.0 39.8,21.9" fill="#df4d85" stroke="#64233c"/><polygon points="39.0,21.2 38.4,21.9 39.1,22.0" fill="#ea518b" stroke="#69243f"/><polygon points="61.9,28.9 62.4,29.7 62.4,29.0 61.9,28.3" fill="#742845" stroke="#34121f"/><polygon points="60.1,27.9 60.7,27.7 60.1,27.6" fill="#d64a7f" stroke="#602139"/><polygon points="60.1,27.9 60.1,27.6 59.5,27.7" fill="#e14e86" stroke="#65233c"/><polygon points="58.3,28.3 57.8,29.0 57.8,29.8 58.3,28.9" fill="#f65592" stroke="#6f2642"/><polygon points="39.0,20.2 39.3,20.5 39.5,20.4" fill="#ddb52d" stroke="#635114"/><polygon points="39.0,20.2 38.6,20.4 38.8,20.5" fill="#ffd234" stroke="#735f17"/><polygon points="39.6,20.9 39.7,21.4 40.1,21.1 39.9,20.7" fill="#7b6419" stroke="#372d0b"/><polygon points="52.0,19.1 51.9,19.2 52.7,19.1 53.4,18.8" fill="#742845" stroke="#34121f"/><polygon points="38.3,20.7 38.1,21.1 38.4,21.4 38.6,20.9" fill="#fecf34" stroke="#725d17"/><polygon points="50.5,18.8 51.2,19.1 51.9,19.2 52.0,19.1" fill="#742845" stroke="#34121f"/><polygon points="39.3,20.5 39.6,20.9 39.9,20.7 39.5,20.4" fill="#ac8d23" stroke="#4d3f10"/><polygon points="38.6,20.4 38.3,20.7 38.6,20.9 38.8,20.5" fill="#ffdd37" stroke="#736319"/><polygon points="39.0,20.2 39.1,20.6 39.3,20.5" fill="#ebbf30" stroke="#6a5616"/><polygon points="39.0,20.2 38.8,20.5 39.1,20.6" fill="#f8cb33" stroke="#705b17"/><polygon points="54.4,38.2 54.4,41.8 58.3,39.1 58.3,35.5" fill="#1f3e1a" stroke="#0e1c0c"/><polygon points="61.5,31.2 61.2,31.7 61.9,31.2 62.4,30.6" fill="#742845" stroke="#34121f"/><polygon points="57.8,30.6 58.3,31.3 59.0,31.7 58.7,31.2" fill="#8d3154" stroke="#3f1626"/><polygon points="53.1,18.2 55.6,19.1 55.6,18.3" fill="#356b2d" stroke="#183014"/><polygon points="39.1,21.5 39.1,21.9 39.7,21.8 39.7,21.4" fill="#7b6419" stroke="#372d0b"/><polygon points="60.1,27.9 61.1,27.9 60.7,27.7" fill="#ce477b" stroke="#5d2037"/><polygon points="38.4,21.4 38.4,21.8 39.1,21.9 39.1,21.5" fill="#af8f24" stroke="#4f4010"/><polygon points="60.1,27.9 59.5,27.7 59.1,27.9" fill="#ec518c" stroke="#6a243f"/><polygon points="54.2,15.2 54.8,16.3 54.8,15.4 54.2,14.5" fill="#742845" stroke="#34121f"/><polygon points="53.1,18.2 50.5,18.3 50.5,19.2" fill="#408137" stroke="#1d3a19"/><polygon points="56.7,24.8 56.7,27.2 58.8,25.7 58.8,23.3" fill="#1f3e1a" stroke="#0e1c0c"/><polygon points="51.9,14.0 52.7,13.7 51.9,13.5" fill="#d54a7f" stroke="#602139"/><polygon points="51.9,14.0 51.9,13.5 51.1,13.7" fill="#e14e86" stroke="#65233c"/><polygon points="49.6,14.5 49.1,15.4 49.1,16.3 49.7,15.2" fill="#f65592" stroke="#6f2642"/><polygon points="37.7,35.6 37.7,39.2 41.7,41.8 41.7,38.3" fill="#356b2d" stroke="#183014"/><polygon points="39.1,24.2 39.1,25.1 40.7,24.9 40.7,23.9" fill="#742845" stroke="#34121f"/><polygon points="37.5,23.9 37.5,24.9 39.1,25.1 39.1,24.2" fill="#a63963" stroke="#4b1a2d"/><polygon points="53.1,27.7 53.1,29.3 55.9,28.8 56.7,27.2" fill="#1f3e1a" stroke="#0e1c0c"/><polygon points="47.4,23.3 47.4,25.7 49.6,27.2 49.6,24.8" fill="#356b2d" stroke="#183014"/><polygon points="39.1,20.6 39.1,21.0 39.6,20.9 39.3,20.5" fill="#d0aa2a" stroke="#5e4d13"/><polygon points="38.8,20.5 38.6,20.9 39.1,21.0 39.1,20.6" fill="#f6c932" stroke="#6f5a17"/><polygon points="40.5,49.4 45.1,50.4 45.2,49.3 40.7,48.3" fill="#a75328" stroke="#4b2512"/><polygon points="49.6,27.2 50.3,28.8 53.1,29.3 53.1,27.7" fill="#1f3e1a" stroke="#0e1c0c"/><polygon points="39.1,21.0 39.1,21.5 39.7,21.4 39.6,20.9" fill="#a68722" stroke="#4b3d0f"/><polygon points="38.6,20.9 38.4,21.4 39.1,21.5 39.1,21.0" fill="#dbb32d" stroke="#635114"/><polygon points="61.1,28.3 61.9,28.9 61.9,28.3 61.1,27.9" fill="#98345b" stroke="#441729"/><polygon points="53.7,18.1 53.4,18.8 54.2,18.2 54.8,17.4" fill="#742845" stroke="#34121f"/><polygon points="59.1,27.9 58.3,28.3 58.3,28.9 59.1,28.3" fill="#ff5999" stroke="#732845"/><polygon points="49.1,17.4 49.7,18.2 50.5,18.8 50.2,18.1" fill="#8f3155" stroke="#401626"/><polygon points="39.1,22.0 39.1,23.1 40.3,22.8 39.8,21.9" fill="#c94578" stroke="#5a1f36"/><polygon points="38.4,21.9 37.8,22.9 39.1,23.1 39.1,22.0" fill="#ea518b" stroke="#69243f"/><polygon points="51.9,14.0 53.2,14.0 52.7,13.7" fill="#ce477a" stroke="#5d2037"/><polygon points="51.9,14.0 51.1,13.7 50.7,14.0" fill="#ec518c" stroke="#6a243f"/><polygon points="60.1,27.9 61.1,28.3 61.1,27.9" fill="#ce477a" stroke="#5d2037"/><polygon points="60.1,27.9 59.1,27.9 59.1,28.3" fill="#f25490" stroke="#6d2641"/><polygon points="50.1,50.5 54.8,49.6 54.7,48.5 50.1,49.3" fill="#71381b" stroke="#33190c"/><polygon points="39.1,23.1 39.1,24.2 40.7,23.9 40.3,22.8" fill="#a23860" stroke="#49192b"/><polygon points="37.8,22.9 37.5,23.9 39.1,24.2 39.1,23.1" fill="#d3497d" stroke="#5f2138"/><polygon points="48.1,42.8 48.1,45.0 53.2,44.1 54.4,41.8" fill="#1f3e1a" stroke="#0e1c0c"/><polygon points="41.7,41.8 43.0,44.2 48.1,45.0 48.1,42.8" fill="#1f3e1a" stroke="#0e1c0c"/><polygon points="53.2,14.4 54.2,15.2 54.2,14.5 53.2,14.0" fill="#963459" stroke="#441728"/><polygon points="61.5,30.3 61.5,31.2 62.4,30.6 62.4,29.7" fill="#742845" stroke="#34121f"/><polygon points="50.7,14.0 49.6,14.5 49.7,15.2 50.7,14.4" fill="#ff5999" stroke="#732845"/><polygon points="57.8,29.8 57.8,30.6 58.7,31.2 58.7,30.3" fill="#ca4678" stroke="#5b2036"/><polygon points="48.0,27.7 50.9,30.4 52.6,29.2" fill="#387130" stroke="#193316"/><polygon points="60.1,31.4 60.1,31.9 61.2,31.7 61.5,31.2" fill="#742845" stroke="#34121f"/><polygon points="58.7,31.2 59.0,31.7 60.1,31.9 60.1,31.4" fill="#742845" stroke="#34121f"/><polygon points="48.0,27.7 43.4,29.2 45.2,30.4" fill="#3f8036" stroke="#1c3a18"/><polygon points="50.8,13.8 50.8,14.3 50.8,14.7 50.8,14.2" fill="#d9b12c" stroke="#625014"/><polygon points="60.1,27.9 60.7,28.5 61.1,28.3" fill="#d4497e" stroke="#5f2139"/><polygon points="60.1,27.9 59.1,28.3 59.5,28.5" fill="#f25390" stroke="#6d2541"/><polygon points="51.9,14.0 53.2,14.4 53.2,14.0" fill="#cd477a" stroke="#5c2037"/><polygon points="51.9,14.0 50.7,14.0 50.7,14.4" fill="#f35490" stroke="#6d2641"/><polygon points="52.4,13.2 52.8,13.4 52.5,13.2 52.2,13.0" fill="#997d1f" stroke="#45380e"/><polygon points="51.6,13.1 51.4,13.2 51.0,13.4 51.4,13.2" fill="#fbcd33" stroke="#715c17"/><polygon points="51.9,15.4 51.9,15.5 52.3,15.4 52.5,15.3" fill="#7b6419" stroke="#372d0b"/><polygon points="51.4,15.3 51.6,15.4 51.9,15.5 51.9,15.4" fill="#7b6419" stroke="#372d0b"/><polygon points="61.2,29.4 61.5,30.3 62.4,29.7 61.9,28.9" fill="#742845" stroke="#34121f"/><polygon points="53.1,18.2 54.7,19.8 55.6,19.1" fill="#376f2f" stroke="#193215"/><polygon points="58.3,28.9 57.8,29.8 58.7,30.3 59.0,29.4" fill="#f35491" stroke="#6d2641"/><polygon points="53.1,18.2 50.5,19.2 51.5,19.8" fill="#408137" stroke="#1d3a19"/><polygon points="60.7,28.5 61.2,29.4 61.9,28.9 61.1,28.3" fill="#aa3b65" stroke="#4d1b2d"/><polygon points="53.7,17.0 53.7,18.1 54.8,17.4 54.8,16.3" fill="#742845" stroke="#34121f"/><polygon points="59.1,28.3 58.3,28.9 59.0,29.4 59.5,28.5" fill="#ff5898" stroke="#732844"/><polygon points="60.1,27.9 60.1,28.6 60.7,28.5" fill="#df4d85" stroke="#64233c"/><polygon points="60.1,27.9 59.5,28.5 60.1,28.6" fill="#ea518b" stroke="#69243f"/><polygon points="49.1,16.3 49.1,17.4 50.2,18.1 50.2,17.0" fill="#ca4678" stroke="#5b2036"/><polygon points="52.9,13.7 53.1,14.2 53.1,13.8 52.8,13.4" fill="#7b6419" stroke="#372d0b"/><polygon points="52.7,14.9 52.5,15.3 52.9,15.0 53.1,14.6" fill="#7b6419" stroke="#372d0b"/><polygon points="51.0,13.4 50.8,13.8 50.8,14.2 51.0,13.7" fill="#ffd234" stroke="#735f17"/><polygon points="50.8,14.7 51.0,15.0 51.4,15.3 51.2,15.0" fill="#9d8020" stroke="#473a0e"/><polygon points="51.9,13.2 52.2,13.0 51.9,13.0" fill="#e0b62e" stroke="#655215"/><polygon points="51.9,13.2 51.9,13.0 51.6,13.1" fill="#edc230" stroke="#6b5716"/><polygon points="52.0,18.4 52.0,19.1 53.4,18.8 53.7,18.1" fill="#742845" stroke="#34121f"/><polygon points="50.2,18.1 50.5,18.8 52.0,19.1 52.0,18.4" fill="#742845" stroke="#34121f"/><polygon points="55.9,22.2 56.7,24.8 58.8,23.3 57.7,21.0" fill="#1f3e1a" stroke="#0e1c0c"/><polygon points="45.1,50.4 50.1,50.5 50.1,49.3 45.2,49.3" fill="#8d4722" stroke="#3f200f"/><polygon points="51.9,13.2 52.4,13.2 52.2,13.0" fill="#d7af2c" stroke="#614f14"/><polygon points="51.9,13.2 51.6,13.1 51.4,13.2" fill="#facc33" stroke="#715c17"/><polygon points="48.5,21.0 47.4,23.3 49.6,24.8 50.3,22.2" fill="#3f7f36" stroke="#1c3918"/><polygon points="52.4,13.3 52.9,13.7 52.8,13.4 52.4,13.2" fill="#977b1f" stroke="#44370e"/><polygon points="51.4,13.2 51.0,13.4 51.0,13.7 51.4,13.3" fill="#ffde38" stroke="#736419"/><polygon points="51.9,14.0 52.7,14.7 53.2,14.4" fill="#d4497e" stroke="#5f2139"/><polygon points="51.9,14.0 50.7,14.4 51.2,14.7" fill="#f25390" stroke="#6d2541"/><polygon points="60.1,30.6 60.1,31.4 61.5,31.2 61.5,30.3" fill="#742845" stroke="#34121f"/><polygon points="58.7,30.3 58.7,31.2 60.1,31.4 60.1,30.6" fill="#a63963" stroke="#4b1a2d"/><polygon points="51.9,13.2 52.4,13.3 52.4,13.2" fill="#d6af2c" stroke="#604f14"/><polygon points="51.9,13.2 51.4,13.2 51.4,13.3" fill="#ffd235" stroke="#735f18"/><polygon points="52.7,14.5 52.7,14.9 53.1,14.6 53.1,14.2" fill="#7b6419" stroke="#372d0b"/><polygon points="51.9,15.1 51.9,15.4 52.5,15.3 52.7,14.9" fill="#7b6419" stroke="#372d0b"/><polygon points="50.8,14.2 50.8,14.7 51.2,15.0 51.2,14.5" fill="#d5ae2c" stroke="#604e14"/><polygon points="51.2,15.0 51.4,15.3 51.9,15.4 51.9,15.1" fill="#7b6419" stroke="#372d0b"/><polygon points="54.7,19.8 55.9,22.2 57.7,21.0 55.6,19.1" fill="#2b5625" stroke="#132711"/><polygon points="50.5,19.2 48.5,21.0 50.3,22.2 51.5,19.8" fill="#438839" stroke="#1e3d1a"/><polygon points="53.4,15.8 53.7,17.0 54.8,16.3 54.2,15.2" fill="#742845" stroke="#34121f"/><polygon points="60.1,28.6 60.1,29.6 61.2,29.4 60.7,28.5" fill="#ca4678" stroke="#5b2036"/><polygon points="59.5,28.5 59.0,29.4 60.1,29.6 60.1,28.6" fill="#ea518b" stroke="#69243f"/><polygon points="49.7,15.2 49.1,16.3 50.2,17.0 50.5,15.8" fill="#f35490" stroke="#6d2641"/><polygon points="53.2,34.1 54.4,38.2 58.3,35.5 56.3,32.0" fill="#1f3f1a" stroke="#0e1c0c"/><polygon points="53.1,18.2 53.1,20.1 54.7,19.8" fill="#3a7632" stroke="#1a3517"/><polygon points="52.7,14.7 53.4,15.8 54.2,15.2 53.2,14.4" fill="#a93a64" stroke="#4c1a2d"/><polygon points="53.1,18.2 51.5,19.8 53.1,20.1" fill="#3e7d35" stroke="#1c3818"/><polygon points="51.9,13.2 52.3,13.5 52.4,13.3" fill="#ddb52d" stroke="#635114"/><polygon points="50.7,14.4 49.7,15.2 50.5,15.8 51.2,14.7" fill="#ff5898" stroke="#732844"/><polygon points="51.9,13.2 51.4,13.3 51.6,13.5" fill="#ffd234" stroke="#735f17"/><polygon points="51.9,14.0 51.9,14.9 52.7,14.7" fill="#df4d84" stroke="#64233b"/><polygon points="51.9,14.0 51.2,14.7 51.9,14.9" fill="#ea518b" stroke="#69243f"/><polygon points="52.5,13.9 52.7,14.5 53.1,14.2 52.9,13.7" fill="#7b6419" stroke="#372d0b"/><polygon points="51.0,13.7 50.8,14.2 51.2,14.5 51.4,14.0" fill="#fecf34" stroke="#725d17"/><polygon points="39.8,32.0 37.7,35.6 41.7,38.3 43.0,34.2" fill="#408237" stroke="#1d3b19"/><polygon points="50.9,30.4 53.2,34.1 56.3,32.0 52.6,29.2" fill="#2d5c27" stroke="#142912"/><polygon points="60.1,29.6 60.1,30.6 61.5,30.3 61.2,29.4" fill="#a23861" stroke="#49192c"/><polygon points="52.3,13.5 52.5,13.9 52.9,13.7 52.4,13.3" fill="#ac8d23" stroke="#4d3f10"/><polygon points="59.0,29.4 58.7,30.3 60.1,30.6 60.1,29.6" fill="#d3497e" stroke="#5f2139"/><polygon points="51.4,13.3 51.0,13.7 51.4,14.0 51.6,13.5" fill="#ffdd37" stroke="#736319"/><polygon points="51.9,13.2 51.9,13.5 52.3,13.5" fill="#ebbf30" stroke="#6a5616"/><polygon points="51.9,13.2 51.6,13.5 51.9,13.5" fill="#f8cb33" stroke="#705b17"/><polygon points="48.0,27.7 48.0,30.8 50.9,30.4" fill="#3b7632" stroke="#1b3517"/><polygon points="43.4,29.2 39.8,32.0 43.0,34.2 45.2,30.4" fill="#438839" stroke="#1e3d1a"/><polygon points="48.0,27.7 45.2,30.4 48.0,30.8" fill="#3e7c34" stroke="#1c3817"/><polygon points="51.9,14.6 51.9,15.1 52.7,14.9 52.7,14.5" fill="#7b6419" stroke="#372d0b"/><polygon points="51.2,14.5 51.2,15.0 51.9,15.1 51.9,14.6" fill="#af8f24" stroke="#4f4010"/><polygon points="51.9,13.5 51.9,14.0 52.5,13.9 52.3,13.5" fill="#d0aa2a" stroke="#5e4d13"/><polygon points="51.6,13.5 51.4,14.0 51.9,14.0 51.9,13.5" fill="#f6c932" stroke="#6f5a17"/><polygon points="51.9,14.0 51.9,14.6 52.7,14.5 52.5,13.9" fill="#a68722" stroke="#4b3d0f"/><polygon points="51.4,14.0 51.2,14.5 51.9,14.6 51.9,14.0" fill="#dbb32d" stroke="#635114"/><polygon points="52.0,17.3 52.0,18.4 53.7,18.1 53.7,17.0" fill="#742845" stroke="#34121f"/><polygon points="50.2,17.0 50.2,18.1 52.0,18.4 52.0,17.3" fill="#a63963" stroke="#4b1a2d"/><polygon points="53.1,25.4 53.1,27.7 56.7,27.2 56.7,24.8" fill="#1f3e1a" stroke="#0e1c0c"/><polygon points="49.6,24.8 49.6,27.2 53.1,27.7 53.1,25.4" fill="#2c5825" stroke="#142811"/><polygon points="51.9,14.9 52.0,16.1 53.4,15.8 52.7,14.7" fill="#c94577" stroke="#5a1f36"/><polygon points="51.2,14.7 50.5,15.8 52.0,16.1 51.9,14.9" fill="#ea518b" stroke="#69243f"/><polygon points="52.0,16.1 52.0,17.3 53.7,17.0 53.4,15.8" fill="#a13860" stroke="#48192b"/><polygon points="50.5,15.8 50.2,17.0 52.0,17.3 52.0,16.1" fill="#d2497d" stroke="#5f2138"/><polygon points="53.1,20.1 53.1,22.6 55.9,22.2 54.7,19.8" fill="#34692c" stroke="#172f14"/><polygon points="35.1,27.0 35.1,28.9 35.1,30.4 35.1,28.5" fill="#578e39" stroke="#27401a"/><polygon points="51.5,19.8 50.3,22.2 53.1,22.6 53.1,20.1" fill="#3d7b34" stroke="#1b3717"/><polygon points="53.1,22.6 53.1,25.4 56.7,24.8 55.9,22.2" fill="#295323" stroke="#122510"/><polygon points="50.3,22.2 49.6,24.8 53.1,25.4 53.1,22.6" fill="#376e2e" stroke="#193215"/><polygon points="41.7,24.5 43.3,25.4 41.9,24.5 40.9,24.0" fill="#3d6428" stroke="#1b2d12"/><polygon points="38.4,24.0 37.4,24.5 36.0,25.4 37.7,24.5" fill="#65a442" stroke="#2d4a1e"/><polygon points="39.7,33.3 39.7,33.6 41.0,33.4 42.0,32.9" fill="#315020" stroke="#16240e"/><polygon points="37.5,32.9 38.5,33.4 39.7,33.6 39.7,33.3" fill="#315020" stroke="#16240e"/><polygon points="48.1,39.3 48.1,42.8 54.4,41.8 54.4,38.2" fill="#1f3e1a" stroke="#0e1c0c"/><polygon points="41.7,38.3 41.7,41.8 48.1,42.8 48.1,39.3" fill="#2c5825" stroke="#142811"/><polygon points="43.4,26.6 44.3,28.5 44.3,27.0 43.3,25.4" fill="#315020" stroke="#16240e"/><polygon points="42.6,31.6 42.0,32.9 43.4,31.9 44.3,30.4" fill="#315020" stroke="#16240e"/><polygon points="36.0,25.4 35.1,27.0 35.1,28.5 36.0,26.6" fill="#67a843" stroke="#2e4c1e"/><polygon points="35.1,30.4 36.0,32.0 37.5,32.9 36.9,31.6" fill="#3f6629" stroke="#1c2e12"/><polygon points="48.0,30.8 48.1,35.0 53.2,34.1 50.9,30.4" fill="#356c2e" stroke="#183115"/><polygon points="39.7,24.4 40.9,24.0 39.7,23.8" fill="#59923a" stroke="#28421a"/><polygon points="45.2,30.4 43.0,34.2 48.1,35.0 48.0,30.8" fill="#3e7d35" stroke="#1c3818"/><polygon points="39.7,24.4 39.7,23.8 38.4,24.0" fill="#5f9b3e" stroke="#2b461c"/><polygon points="39.7,24.4 41.7,24.5 40.9,24.0" fill="#568c38" stroke="#273f19"/><polygon points="39.7,24.4 38.4,24.0 37.7,24.5" fill="#64a341" stroke="#2d491d"/><polygon points="41.7,25.2 43.4,26.6 43.3,25.4 41.7,24.5" fill="#3c6328" stroke="#1b2d12"/><polygon points="37.7,24.5 36.0,25.4 36.0,26.6 37.7,25.2" fill="#6db247" stroke="#315020"/><polygon points="48.1,35.0 48.1,39.3 54.4,38.2 53.2,34.1" fill="#2b5725" stroke="#132711"/><polygon points="43.0,34.2 41.7,38.3 48.1,39.3 48.1,35.0" fill="#387130" stroke="#193316"/><polygon points="45.5,31.6 45.5,34.5 45.5,36.7 45.5,33.8" fill="#578e39" stroke="#27401a"/><polygon points="39.7,24.4 41.7,25.2 41.7,24.5" fill="#568c38" stroke="#273f19"/><polygon points="39.7,24.4 37.7,24.5 37.7,25.2" fill="#67a843" stroke="#2e4c1e"/><polygon points="42.6,29.7 42.6,31.6 44.3,30.4 44.3,28.5" fill="#315020" stroke="#16240e"/><polygon points="39.7,32.0 39.7,33.3 42.0,32.9 42.6,31.6" fill="#315020" stroke="#16240e"/><polygon points="35.1,28.5 35.1,30.4 36.9,31.6 36.9,29.7" fill="#558b38" stroke="#263f19"/><polygon points="36.9,31.6 37.5,32.9 39.7,33.3 39.7,32.0" fill="#315020" stroke="#16240e"/><polygon points="55.4,27.9 57.8,29.2 55.7,27.8 54.2,27.1" fill="#3d6428" stroke="#1b2d12"/><polygon points="50.5,27.1 48.9,27.8 46.9,29.3 49.3,27.9" fill="#65a442" stroke="#2d4a1e"/><polygon points="52.4,41.0 52.4,41.5 54.3,41.2 55.8,40.4" fill="#315020" stroke="#16240e"/><polygon points="49.0,40.5 50.5,41.2 52.4,41.5 52.4,41.0" fill="#315020" stroke="#16240e"/><polygon points="39.7,24.4 41.0,25.7 41.7,25.2" fill="#59913a" stroke="#28411a"/><polygon points="39.7,24.4 37.7,25.2 38.5,25.7" fill="#67a843" stroke="#2e4c1e"/><polygon points="42.0,27.6 42.6,29.7 44.3,28.5 43.4,26.6" fill="#315020" stroke="#16240e"/><polygon points="36.0,26.6 35.1,28.5 36.9,29.7 37.5,27.6" fill="#65a642" stroke="#2d4b1e"/><polygon points="41.0,25.7 42.0,27.6 43.4,26.6 41.7,25.2" fill="#45702d" stroke="#1f3214"/><polygon points="37.7,25.2 36.0,26.6 37.5,27.6 38.5,25.7" fill="#6cb047" stroke="#314f20"/><polygon points="39.7,24.4 39.7,25.9 41.0,25.7" fill="#5e993d" stroke="#2a451b"/><polygon points="39.7,24.4 38.5,25.7 39.7,25.9" fill="#63a241" stroke="#2d491d"/><polygon points="57.9,31.0 59.2,33.8 59.2,31.6 57.8,29.2" fill="#315020" stroke="#16240e"/><polygon points="56.7,38.4 55.8,40.4 57.9,39.0 59.2,36.6" fill="#315020" stroke="#16240e"/><polygon points="46.9,29.3 45.5,31.6 45.5,33.8 46.9,31.0" fill="#67a843" stroke="#2e4c1e"/><polygon points="45.5,36.7 46.9,39.0 49.0,40.5 48.2,38.5" fill="#3f6629" stroke="#1c2e12"/><polygon points="39.7,30.1 39.7,32.0 42.6,31.6 42.6,29.7" fill="#315020" stroke="#16240e"/><polygon points="36.9,29.7 36.9,31.6 39.7,32.0 39.7,30.1" fill="#46722e" stroke="#203315"/><polygon points="52.4,27.7 54.2,27.1 52.3,26.8" fill="#59923a" stroke="#28421a"/><polygon points="52.4,27.7 52.3,26.8 50.5,27.1" fill="#5f9b3e" stroke="#2b461c"/><polygon points="39.7,25.9 39.7,27.9 42.0,27.6 41.0,25.7" fill="#538836" stroke="#253d18"/><polygon points="38.5,25.7 37.5,27.6 39.7,27.9 39.7,25.9" fill="#62a040" stroke="#2c481d"/><polygon points="39.7,27.9 39.7,30.1 42.6,29.7 42.0,27.6" fill="#426c2b" stroke="#1e3113"/><polygon points="37.5,27.6 36.9,29.7 39.7,30.1 39.7,27.9" fill="#588f39" stroke="#28401a"/><polygon points="52.4,27.7 55.4,27.9 54.2,27.1" fill="#568c38" stroke="#273f19"/><polygon points="52.4,27.7 50.5,27.1 49.3,27.9" fill="#64a341" stroke="#2d491d"/><polygon points="55.4,28.8 57.9,31.0 57.8,29.2 55.4,27.9" fill="#3c6328" stroke="#1b2d12"/><polygon points="49.3,27.9 46.9,29.3 46.9,31.0 49.3,28.9" fill="#6db247" stroke="#315020"/><polygon points="52.4,27.7 55.4,28.8 55.4,27.9" fill="#568c38" stroke="#273f19"/><polygon points="52.4,27.7 49.3,27.9 49.3,28.9" fill="#67a843" stroke="#2e4c1e"/><polygon points="56.7,35.6 56.7,38.4 59.2,36.6 59.2,33.8" fill="#315020" stroke="#16240e"/><polygon points="52.4,39.1 52.4,41.0 55.8,40.4 56.7,38.4" fill="#315020" stroke="#16240e"/><polygon points="45.5,33.8 45.5,36.7 48.2,38.5 48.2,35.6" fill="#558b38" stroke="#263f19"/><polygon points="48.2,38.5 49.0,40.5 52.4,41.0 52.4,39.1" fill="#315020" stroke="#16240e"/><polygon points="52.4,27.7 54.3,29.6 55.4,28.8" fill="#59913a" stroke="#28411a"/><polygon points="52.4,27.7 49.3,28.9 50.5,29.7" fill="#67a843" stroke="#2e4c1e"/><polygon points="55.8,32.4 56.7,35.6 59.2,33.8 57.9,31.0" fill="#315020" stroke="#16240e"/><polygon points="46.9,31.0 45.5,33.8 48.2,35.6 49.0,32.5" fill="#65a642" stroke="#2d4b1e"/><polygon points="54.3,29.6 55.8,32.4 57.9,31.0 55.4,28.8" fill="#45702d" stroke="#1f3214"/><polygon points="49.3,28.9 46.9,31.0 49.0,32.5 50.5,29.7" fill="#6cb047" stroke="#314f20"/><polygon points="52.4,27.7 52.4,30.0 54.3,29.6" fill="#5e993d" stroke="#2a451b"/><polygon points="52.4,27.7 50.5,29.7 52.4,30.0" fill="#63a241" stroke="#2d491d"/><polygon points="52.4,36.3 52.4,39.1 56.7,38.4 56.7,35.6" fill="#315020" stroke="#16240e"/><polygon points="48.2,35.6 48.2,38.5 52.4,39.1 52.4,36.3" fill="#46722e" stroke="#203315"/><polygon points="47.6,26.5 47.6,27.6 47.6,28.5 47.6,27.4" fill="#cd477a" stroke="#5c2037"/><polygon points="51.7,25.1 52.7,25.6 51.8,25.0 51.2,24.8" fill="#98355b" stroke="#441829"/><polygon points="49.6,24.8 49.0,25.0 48.1,25.6 49.2,25.1" fill="#ef538e" stroke="#6c2540"/><polygon points="50.5,30.2 50.4,30.3 51.2,30.2 51.9,29.9" fill="#742845" stroke="#34121f"/><polygon points="49.0,29.9 49.7,30.2 50.4,30.3 50.5,30.2" fill="#742845" stroke="#34121f"/><polygon points="52.7,26.3 53.3,27.4 53.3,26.5 52.7,25.6" fill="#742845" stroke="#34121f"/><polygon points="50.4,25.1 51.2,24.8 50.4,24.6" fill="#d54a7f" stroke="#602139"/><polygon points="50.4,25.1 50.4,24.6 49.6,24.8" fill="#e14e86" stroke="#65233c"/><polygon points="48.1,25.6 47.6,26.5 47.6,27.4 48.2,26.4" fill="#f65592" stroke="#6f2642"/><polygon points="52.4,30.0 52.4,33.0 55.8,32.4 54.3,29.6" fill="#538836" stroke="#253d18"/><polygon points="50.5,29.7 49.0,32.5 52.4,33.0 52.4,30.0" fill="#62a040" stroke="#2c481d"/><polygon points="52.2,29.2 51.9,29.9 52.7,29.3 53.3,28.5" fill="#742845" stroke="#34121f"/><polygon points="47.6,28.5 48.2,29.4 49.0,29.9 48.7,29.2" fill="#8f3155" stroke="#401626"/><polygon points="50.4,25.1 51.7,25.1 51.2,24.8" fill="#ce477a" stroke="#5d2037"/><polygon points="50.4,25.1 49.6,24.8 49.2,25.1" fill="#ec518c" stroke="#6a243f"/><polygon points="52.4,33.0 52.4,36.3 56.7,35.6 55.8,32.4" fill="#426c2b" stroke="#1e3113"/><polygon points="49.0,32.5 48.2,35.6 52.4,36.3 52.4,33.0" fill="#588f39" stroke="#28401a"/><polygon points="51.7,25.5 52.7,26.3 52.7,25.6 51.7,25.1" fill="#963459" stroke="#441728"/><polygon points="49.2,25.1 48.1,25.6 48.2,26.4 49.2,25.5" fill="#ff5999" stroke="#732845"/><polygon points="49.3,24.9 49.3,25.4 49.3,25.8 49.3,25.3" fill="#d9b12c" stroke="#625014"/><polygon points="50.4,25.1 51.7,25.5 51.7,25.1" fill="#cd477a" stroke="#5c2037"/><polygon points="50.4,25.1 49.2,25.1 49.2,25.5" fill="#f35490" stroke="#6d2641"/><polygon points="50.9,24.3 51.3,24.5 51.0,24.3 50.7,24.2" fill="#997d1f" stroke="#45380e"/><polygon points="50.1,24.2 49.9,24.3 49.5,24.5 49.9,24.3" fill="#fbcd33" stroke="#715c17"/><polygon points="50.4,26.5 50.4,26.6 50.8,26.5 51.0,26.4" fill="#7b6419" stroke="#372d0b"/><polygon points="49.9,26.4 50.1,26.5 50.4,26.6 50.4,26.5" fill="#7b6419" stroke="#372d0b"/><polygon points="52.2,28.1 52.2,29.2 53.3,28.5 53.3,27.4" fill="#742845" stroke="#34121f"/><polygon points="47.6,27.4 47.6,28.5 48.7,29.2 48.7,28.2" fill="#ca4678" stroke="#5b2036"/><polygon points="51.4,24.8 51.6,25.3 51.6,24.9 51.3,24.5" fill="#7b6419" stroke="#372d0b"/><polygon points="51.2,26.1 51.0,26.4 51.4,26.1 51.6,25.8" fill="#7b6419" stroke="#372d0b"/><polygon points="49.5,24.5 49.3,24.9 49.3,25.3 49.5,24.8" fill="#ffd234" stroke="#735f17"/><polygon points="49.3,25.8 49.5,26.2 49.9,26.4 49.7,26.1" fill="#9d8020" stroke="#473a0e"/><polygon points="50.4,24.3 50.7,24.2 50.4,24.1" fill="#e0b62e" stroke="#655215"/><polygon points="50.4,24.3 50.4,24.1 50.1,24.2" fill="#edc230" stroke="#6b5716"/><polygon points="50.5,29.5 50.5,30.2 51.9,29.9 52.2,29.2" fill="#742845" stroke="#34121f"/><polygon points="48.7,29.2 49.0,29.9 50.5,30.2 50.5,29.5" fill="#742845" stroke="#34121f"/><polygon points="50.4,24.3 50.9,24.3 50.7,24.2" fill="#d7af2c" stroke="#614f14"/><polygon points="50.4,24.3 50.1,24.2 49.9,24.3" fill="#facc33" stroke="#715c17"/><polygon points="50.9,24.5 51.4,24.8 51.3,24.5 50.9,24.3" fill="#977b1f" stroke="#44370e"/><polygon points="49.9,24.3 49.5,24.5 49.5,24.8 49.9,24.5" fill="#ffde38" stroke="#736419"/><polygon points="50.4,25.1 51.2,25.8 51.7,25.5" fill="#d4497e" stroke="#5f2139"/><polygon points="50.4,25.1 49.2,25.5 49.7,25.8" fill="#f25390" stroke="#6d2541"/><polygon points="50.4,24.3 50.9,24.5 50.9,24.3" fill="#d6af2c" stroke="#604f14"/><polygon points="50.4,24.3 49.9,24.3 49.9,24.5" fill="#ffd235" stroke="#735f18"/><polygon points="51.2,25.6 51.2,26.1 51.6,25.8 51.6,25.3" fill="#7b6419" stroke="#372d0b"/><polygon points="50.4,26.2 50.4,26.5 51.0,26.4 51.2,26.1" fill="#7b6419" stroke="#372d0b"/><polygon points="49.3,25.3 49.3,25.8 49.7,26.1 49.7,25.6" fill="#d5ae2c" stroke="#604e14"/><polygon points="49.7,26.1 49.9,26.4 50.4,26.5 50.4,26.2" fill="#7b6419" stroke="#372d0b"/><polygon points="51.9,26.9 52.2,28.1 53.3,27.4 52.7,26.3" fill="#742845" stroke="#34121f"/><polygon points="48.2,26.4 47.6,27.4 48.7,28.2 49.0,26.9" fill="#f35490" stroke="#6d2641"/><polygon points="51.2,25.8 51.9,26.9 52.7,26.3 51.7,25.5" fill="#a93a64" stroke="#4c1a2d"/><polygon points="50.4,24.3 50.8,24.6 50.9,24.5" fill="#ddb52d" stroke="#635114"/><polygon points="49.2,25.5 48.2,26.4 49.0,26.9 49.7,25.8" fill="#ff5898" stroke="#732844"/><polygon points="50.4,24.3 49.9,24.5 50.1,24.6" fill="#ffd234" stroke="#735f17"/><polygon points="50.4,25.1 50.4,26.0 51.2,25.8" fill="#df4d84" stroke="#64233b"/><polygon points="50.4,25.1 49.7,25.8 50.4,26.0" fill="#ea518b" stroke="#69243f"/><polygon points="51.0,25.1 51.2,25.6 51.6,25.3 51.4,24.8" fill="#7b6419" stroke="#372d0b"/><polygon points="49.5,24.8 49.3,25.3 49.7,25.6 49.9,25.1" fill="#fecf34" stroke="#725d17"/><polygon points="50.8,24.6 51.0,25.1 51.4,24.8 50.9,24.5" fill="#ac8d23" stroke="#4d3f10"/><polygon points="49.9,24.5 49.5,24.8 49.9,25.1 50.1,24.6" fill="#ffdd37" stroke="#736319"/><polygon points="50.4,24.3 50.4,24.6 50.8,24.6" fill="#ebbf30" stroke="#6a5616"/><polygon points="50.4,24.3 50.1,24.6 50.4,24.6" fill="#f8cb33" stroke="#705b17"/><polygon points="50.4,25.7 50.4,26.2 51.2,26.1 51.2,25.6" fill="#7b6419" stroke="#372d0b"/><polygon points="49.7,25.6 49.7,26.1 50.4,26.2 50.4,25.7" fill="#af8f24" stroke="#4f4010"/><polygon points="50.4,24.6 50.4,25.1 51.0,25.1 50.8,24.6" fill="#d0aa2a" stroke="#5e4d13"/><polygon points="50.1,24.6 49.9,25.1 50.4,25.1 50.4,24.6" fill="#f6c932" stroke="#6f5a17"/><polygon points="50.4,25.1 50.4,25.7 51.2,25.6 51.0,25.1" fill="#a68722" stroke="#4b3d0f"/><polygon points="49.9,25.1 49.7,25.6 50.4,25.7 50.4,25.1" fill="#dbb32d" stroke="#635114"/><polygon points="50.5,28.4 50.5,29.5 52.2,29.2 52.2,28.1" fill="#742845" stroke="#34121f"/><polygon points="48.7,28.2 48.7,29.2 50.5,29.5 50.5,28.4" fill="#a63963" stroke="#4b1a2d"/><polygon points="50.4,26.0 50.5,27.2 51.9,26.9 51.2,25.8" fill="#c94577" stroke="#5a1f36"/><polygon points="49.7,25.8 49.0,26.9 50.5,27.2 50.4,26.0" fill="#ea518b" stroke="#69243f"/><polygon points="50.5,27.2 50.5,28.4 52.2,28.1 51.9,26.9" fill="#a13860" stroke="#48192b"/><polygon points="49.0,26.9 48.7,28.2 50.5,28.4 50.5,27.2" fill="#d2497d" stroke="#5f2138"/></g><rect x="3.5" y="3.5" width="89" height="89" rx="14.5" fill="none" stroke="#fff" stroke-opacity=".35" stroke-width="2"/><rect x="1" y="1" width="94" height="94" rx="17" fill="none" stroke="#000" stroke-opacity=".55" stroke-width="2"/></svg>