<svg xmlns="http://www.w3.org/2000/svg" viewBox="0 0 96 96" width="96" height="96"><defs><linearGradient id="g" x1="0" y1="0" x2="0" y2="1"><stop offset="0" stop-color="#2e8a80"/><stop offset="1" stop-color="#13403c"/></linearGradient><radialGradient id="h" cx=".5" cy=".38" r=".62"><stop offset="0" stop-color="#fff" stop-opacity=".28"/><stop offset="1" stop-color="#fff" stop-opacity="0"/></radialGradient></defs><rect x="2" y="2" width="92" height="92" rx="16" fill="url(#g)"/><rect x="2" y="2" width="92" height="92" rx="16" fill="url(#h)"/><ellipse cx="48" cy="77.7" rx="33.6" ry="5" fill="#000" opacity=".28"/><g stroke-linejoin="round" stroke-width="0.82"><polygon points="44.5,48.4 27.0,60.5 51.5,69.2 69.0,57.1" fill="#878e96" stroke="#3d4044"/><polygon points="69.0,59.0 69.0,57.1 51.5,69.2 51.5,71.2" fill="#45494d" stroke="#1f2123"/><polygon points="44.5,31.7 27.0,43.9 51.5,52.6 69.0,40.4" fill="#878e96" stroke="#3d4044"/><polygon points="27.0,62.5 51.5,71.2 51.5,69.2 27.0,60.5" fill="#6f767c" stroke="#323538"/><polygon points="61.0,56.9 57.3,59.5 60.3,60.5 64.0,58.0" fill="#878e96" stroke="#3d4044"/><polygon points="64.0,61.1 64.0,58.0 60.3,60.5 60.3,63.7" fill="#45494d" stroke="#1f2123"/><polygon points="67.7,65.3 67.7,33.6 51.3,45.0 51.3,76.7" fill="#1d354d" stroke="#0d1823"/><polygon points="57.3,62.7 60.3,63.7 60.3,60.5 57.3,59.5" fill="#6f767c" stroke="#323538"/><polygon points="44.7,25.4 28.3,36.9 51.3,45.0 67.7,33.6" fill="#396796" stroke="#1a2e44"/><polygon points="28.3,68.6 51.3,76.7 51.3,45.0 28.3,36.9" fill="#2f567c" stroke="#152738"/><polygon points="42.2,15.3 13.0,35.6 53.8,50.1 83.0,29.8" fill="#6b4a2d" stroke="#302114"/><polygon points="43.2,16.5 19.4,33.1 52.8,44.9 76.6,28.3" fill="#966e44" stroke="#44321f"/><polygon points="69.0,42.4 69.0,40.4 51.5,52.6 51.5,54.6" fill="#45494d" stroke="#1f2123"/><polygon points="27.0,45.9 51.5,54.6 51.5,52.6 27.0,43.9" fill="#6f767c" stroke="#323538"/><polygon points="76.6,29.5 76.6,28.3 52.8,44.9 52.8,46.1" fill="#4d3923" stroke="#231a10"/><polygon points="83.0,31.7 83.0,29.8 53.8,50.1 53.8,52.0" fill="#372617" stroke="#19110a"/><polygon points="19.4,34.3 52.8,46.1 52.8,44.9 19.4,33.1" fill="#7c5b39" stroke="#38291a"/><polygon points="13.0,37.6 53.8,52.0 53.8,50.1 13.0,35.6" fill="#593d25" stroke="#281b11"/></g><rect x="3.5" y="3.5" width="89" height="89" rx="14.5" fill="none" stroke="#fff" stroke-opacity=".35" stroke-width="2"/><rect x="1" y="1" width="94" height="94" rx="17" fill="none" stroke="#000" stroke-opacity=".55" stroke-width="2"/></svg>