<svg xmlns="http://www.w3.org/2000/svg" viewBox="0 0 96 96" width="96" height="96"><defs><linearGradient id="g" x1="0" y1="0" x2="0" y2="1"><stop offset="0" stop-color="#5d6b7a"/><stop offset="1" stop-color="#2c3440"/></linearGradient><radialGradient id="h" cx=".5" cy=".38" r=".62"><stop offset="0" stop-color="#fff" stop-opacity=".28"/><stop offset="1" stop-color="#fff" stop-opacity="0"/></radialGradient></defs><rect x="2" y="2" width="92" height="92" rx="16" fill="url(#g)"/><rect x="2" y="2" width="92" height="92" rx="16" fill="url(#h)"/><ellipse cx="48" cy="80.0" rx="19.7" ry="5" fill="#000" opacity=".28"/><g stroke-linejoin="round" stroke-width="0.39"><polygon points="35.0,63.8 35.0,13.9 30.1,17.3 30.1,67.1" fill="#45494d" stroke="#1f2123"/><polygon points="27.7,66.4 63.2,79.0 63.2,67.6 27.7,55.0" fill="#726f6b" stroke="#333230"/><polygon points="32.8,51.5 27.7,55.0 63.2,67.6 68.3,64.1" fill="#8a8781" stroke="#3e3d3a"/><polygon points="27.6,66.2 30.1,67.1 30.1,17.3 27.6,16.4" fill="#6f767c" stroke="#323538"/><polygon points="28.5,48.6 62.3,60.5 62.3,59.0 28.5,47.1" fill="#6f767c" stroke="#323538"/><polygon points="28.9,46.8 28.5,47.1 62.3,59.0 62.7,58.8" fill="#878e96" stroke="#3d4044"/><polygon points="68.3,75.5 68.3,64.1 63.2,67.6 63.2,79.0" fill="#474542" stroke="#201f1e"/><polygon points="32.5,13.1 27.6,16.4 30.1,17.3 35.0,13.9" fill="#878e96" stroke="#3d4044"/><polygon points="28.4,54.9 63.3,67.2 63.3,35.0 28.4,22.7" fill="#726f6b" stroke="#333230"/><polygon points="28.5,31.5 62.3,43.5 62.3,42.0 28.5,30.0" fill="#6f767c" stroke="#323538"/><polygon points="28.9,29.7 28.5,30.0 62.3,42.0 62.7,41.7" fill="#878e96" stroke="#3d4044"/><polygon points="62.7,60.3 62.7,58.8 62.3,59.0 62.3,60.5" fill="#45494d" stroke="#1f2123"/><polygon points="32.7,19.7 28.4,22.7 63.3,35.0 67.6,32.0" fill="#8a8781" stroke="#3e3d3a"/><polygon points="68.4,75.6 68.4,25.8 63.5,29.1 63.5,79.0" fill="#45494d" stroke="#1f2123"/><polygon points="67.6,64.2 67.6,32.0 63.3,35.0 63.3,67.2" fill="#474542" stroke="#201f1e"/><polygon points="61.0,78.1 63.5,79.0 63.5,29.1 61.0,28.3" fill="#6f767c" stroke="#323538"/><polygon points="32.3,13.0 27.5,16.4 63.7,29.2 68.5,25.9" fill="#878e96" stroke="#3d4044"/><polygon points="27.5,19.0 63.7,31.9 63.7,29.2 27.5,16.4" fill="#6f767c" stroke="#323538"/><polygon points="62.7,43.2 62.7,41.7 62.3,42.0 62.3,43.5" fill="#45494d" stroke="#1f2123"/><polygon points="65.9,24.9 61.0,28.3 63.5,29.1 68.4,25.8" fill="#878e96" stroke="#3d4044"/><polygon points="68.5,28.5 68.5,25.9 63.7,29.2 63.7,31.9" fill="#45494d" stroke="#1f2123"/></g><rect x="3.5" y="3.5" width="89" height="89" rx="14.5" fill="none" stroke="#fff" stroke-opacity=".35" stroke-width="2"/><rect x="1" y="1" width="94" height="94" rx="17" fill="none" stroke="#000" stroke-opacity=".55" stroke-width="2"/></svg>