<svg xmlns="http://www.w3.org/2000/svg" viewBox="0 0 96 96" width="96" height="96"><defs><linearGradient id="g" x1="0" y1="0" x2="0" y2="1"><stop offset="0" stop-color="#9a3a32"/><stop offset="1" stop-color="#4a1a18"/></linearGradient><radialGradient id="h" cx=".5" cy=".38" r=".62"><stop offset="0" stop-color="#fff" stop-opacity=".28"/><stop offset="1" stop-color="#fff" stop-opacity="0"/></radialGradient></defs><rect x="2" y="2" width="92" height="92" rx="16" fill="url(#g)"/><rect x="2" y="2" width="92" height="92" rx="16" fill="url(#h)"/><ellipse cx="48" cy="74.0" rx="33.6" ry="5" fill="#000" opacity=".28"/><g stroke-linejoin="round" stroke-width="0.68"><polygon points="26.6,28.4 13.0,37.9 40.6,47.7 54.2,38.2" fill="#c4a56b" stroke="#584a30"/><polygon points="13.0,51.6 40.6,61.4 40.6,47.7 13.0,37.9" fill="#a28959" stroke="#493e28"/><polygon points="54.2,52.0 54.2,38.2 40.6,47.7 40.6,61.4" fill="#655537" stroke="#2d2619"/><polygon points="39.0,23.0 26.7,31.6 55.9,41.9 68.2,33.4" fill="#c4a56b" stroke="#584a30"/><polygon points="26.7,42.7 55.9,53.1 55.9,41.9 26.7,31.6" fill="#a28959" stroke="#493e28"/><polygon points="55.4,40.0 41.8,49.5 69.4,59.3 83.0,49.8" fill="#c4a56b" stroke="#584a30"/><polygon points="68.2,44.5 68.2,33.4 55.9,41.9 55.9,53.1" fill="#655537" stroke="#2d2619"/><polygon points="47.2,19.0 36.7,26.3 58.2,33.9 68.7,26.6" fill="#c4a56b" stroke="#584a30"/><polygon points="41.8,63.2 69.4,73.0 69.4,59.3 41.8,49.5" fill="#a28959" stroke="#493e28"/><polygon points="83.0,63.6 83.0,49.8 69.4,59.3 69.4,73.0" fill="#655537" stroke="#2d2619"/><polygon points="36.7,35.5 58.2,43.1 58.2,33.9 36.7,26.3" fill="#a28959" stroke="#493e28"/><polygon points="68.7,35.8 68.7,26.6 58.2,33.9 58.2,43.1" fill="#655537" stroke="#2d2619"/></g><rect x="3.5" y="3.5" width="89" height="89" rx="14.5" fill="none" stroke="#fff" stroke-opacity=".35" stroke-width="2"/><rect x="1" y="1" width="94" height="94" rx="17" fill="none" stroke="#000" stroke-opacity=".55" stroke-width="2"/></svg>