<svg xmlns="http://www.w3.org/2000/svg" viewBox="0 0 96 96" width="96" height="96"><defs><linearGradient id="g" x1="0" y1="0" x2="0" y2="1"><stop offset="0" stop-color="#2e8a80"/><stop offset="1" stop-color="#13403c"/></linearGradient><radialGradient id="h" cx=".5" cy=".38" r=".62"><stop offset="0" stop-color="#fff" stop-opacity=".28"/><stop offset="1" stop-color="#fff" stop-opacity="0"/></radialGradient></defs><rect x="2" y="2" width="92" height="92" rx="16" fill="url(#g)"/><rect x="2" y="2" width="92" height="92" rx="16" fill="url(#h)"/><ellipse cx="48" cy="80.0" rx="20.2" ry="5" fill="#000" opacity=".28"/><g stroke-linejoin="round" stroke-width="0.55"><polygon points="36.0,62.0 36.0,14.7 35.2,15.2 35.2,62.6" fill="#1f2225" stroke="#0e0f11"/><polygon points="34.1,62.2 35.2,62.6 35.2,15.2 34.1,14.8" fill="#32363c" stroke="#17181b"/><polygon points="37.2,50.8 31.2,55.0 39.6,57.9 45.6,53.8" fill="#9c7743" stroke="#46361e"/><polygon points="45.6,62.7 45.6,53.8 39.6,57.9 39.6,66.9" fill="#503d23" stroke="#241b10"/><polygon points="35.0,57.9 26.9,63.5 60.5,75.4 68.6,69.8" fill="#674427" stroke="#2e1f12"/><polygon points="31.2,63.9 39.6,66.9 39.6,57.9 31.2,55.0" fill="#816338" stroke="#3a2d19"/><polygon points="26.9,64.5 60.5,76.4 60.5,75.4 26.9,63.5" fill="#563920" stroke="#271a0e"/><polygon points="28.9,66.9 28.9,19.6 28.1,20.1 28.1,67.5" fill="#1f2225" stroke="#0e0f11"/><polygon points="27.0,67.1 28.1,67.5 28.1,20.1 27.0,19.7" fill="#32363c" stroke="#17181b"/><polygon points="49.1,57.3 43.8,61.0 50.7,63.4 56.0,59.8" fill="#9c7743" stroke="#46361e"/><polygon points="56.0,67.1 56.0,59.8 50.7,63.4 50.7,70.8" fill="#503d23" stroke="#241b10"/><polygon points="43.8,68.4 50.7,70.8 50.7,63.4 43.8,61.0" fill="#816338" stroke="#3a2d19"/><polygon points="35.0,44.7 26.9,50.4 60.5,62.2 68.6,56.6" fill="#674427" stroke="#2e1f12"/><polygon points="38.6,38.5 32.3,42.9 42.1,46.4 48.5,42.0" fill="#9c7743" stroke="#46361e"/><polygon points="48.5,50.4 48.5,42.0 42.1,46.4 42.1,54.8" fill="#503d23" stroke="#241b10"/><polygon points="32.3,51.3 42.1,54.8 42.1,46.4 32.3,42.9" fill="#816338" stroke="#3a2d19"/><polygon points="68.6,70.8 68.6,69.8 60.5,75.4 60.5,76.4" fill="#352314" stroke="#181009"/><polygon points="34.8,14.3 34.1,14.8 35.2,15.2 36.0,14.7" fill="#3c4148" stroke="#1b1d20"/><polygon points="58.1,59.6 51.7,64.0 59.6,66.8 66.0,62.4" fill="#e2ded5" stroke="#666460"/><polygon points="66.0,69.8 66.0,62.4 59.6,66.8 59.6,74.2" fill="#74726d" stroke="#343331"/><polygon points="26.9,51.4 60.5,63.3 60.5,62.2 26.9,50.4" fill="#563920" stroke="#271a0e"/><polygon points="51.7,71.4 59.6,74.2 59.6,66.8 51.7,64.0" fill="#bbb8b0" stroke="#54534f"/><polygon points="37.7,26.8 31.7,31.0 40.6,34.1 46.6,29.9" fill="#e2ded5" stroke="#666460"/><polygon points="46.6,36.8 46.6,29.9 40.6,34.1 40.6,40.9" fill="#74726d" stroke="#343331"/><polygon points="35.0,31.6 26.9,37.2 60.5,49.1 68.6,43.5" fill="#674427" stroke="#2e1f12"/><polygon points="31.7,37.8 40.6,40.9 40.6,34.1 31.7,31.0" fill="#bbb8b0" stroke="#54534f"/><polygon points="55.1,47.5 49.8,51.2 55.2,53.1 60.5,49.4" fill="#878e96" stroke="#3d4044"/><polygon points="60.5,55.2 60.5,49.4 55.2,53.1 55.2,58.9" fill="#45494d" stroke="#1f2123"/><polygon points="49.8,57.0 55.2,58.9 55.2,53.1 49.8,51.2" fill="#6f767c" stroke="#323538"/><polygon points="68.5,73.5 68.5,26.2 67.7,26.8 67.7,74.1" fill="#1f2225" stroke="#0e0f11"/><polygon points="68.6,57.7 68.6,56.6 60.5,62.2 60.5,63.3" fill="#352314" stroke="#181009"/><polygon points="66.6,73.7 67.7,74.1 67.7,26.8 66.6,26.4" fill="#32363c" stroke="#17181b"/><polygon points="27.8,19.2 27.0,19.7 28.1,20.1 28.9,19.6" fill="#3c4148" stroke="#1b1d20"/><polygon points="26.9,38.3 60.5,50.2 60.5,49.1 26.9,37.2" fill="#563920" stroke="#271a0e"/><polygon points="34.2,15.3 68.7,27.6 68.7,25.5 34.2,13.2" fill="#563920" stroke="#271a0e"/><polygon points="34.5,13.0 34.2,13.2 68.7,25.5 69.1,25.2" fill="#674427" stroke="#2e1f12"/><polygon points="35.0,18.4 26.9,24.1 60.5,36.0 68.6,30.3" fill="#674427" stroke="#2e1f12"/><polygon points="54.4,30.9 48.5,35.1 56.8,38.0 62.8,33.9" fill="#9c7743" stroke="#46361e"/><polygon points="62.8,42.8 62.8,33.9 56.8,38.0 56.8,47.0" fill="#503d23" stroke="#241b10"/><polygon points="68.6,44.5 68.6,43.5 60.5,49.1 60.5,50.2" fill="#352314" stroke="#181009"/><polygon points="48.5,44.0 56.8,47.0 56.8,38.0 48.5,35.1" fill="#816338" stroke="#3a2d19"/><polygon points="61.5,78.4 61.5,31.1 60.7,31.7 60.7,79.0" fill="#1f2225" stroke="#0e0f11"/><polygon points="59.6,78.6 60.7,79.0 60.7,31.7 59.6,31.3" fill="#32363c" stroke="#17181b"/><polygon points="26.9,25.1 60.5,37.0 60.5,36.0 26.9,24.1" fill="#563920" stroke="#271a0e"/><polygon points="67.4,25.8 66.6,26.4 67.7,26.8 68.5,26.2" fill="#3c4148" stroke="#1b1d20"/><polygon points="69.1,27.3 69.1,25.2 68.7,25.5 68.7,27.6" fill="#352314" stroke="#181009"/><polygon points="68.6,31.4 68.6,30.3 60.5,36.0 60.5,37.0" fill="#352314" stroke="#181009"/><polygon points="60.3,30.7 59.6,31.3 60.7,31.7 61.5,31.1" fill="#3c4148" stroke="#1b1d20"/></g><rect x="3.5" y="3.5" width="89" height="89" rx="14.5" fill="none" stroke="#fff" stroke-opacity=".35" stroke-width="2"/><rect x="1" y="1" width="94" height="94" rx="17" fill="none" stroke="#000" stroke-opacity=".55" stroke-width="2"/></svg>