<svg xmlns="http://www.w3.org/2000/svg" viewBox="0 0 96 96" width="96" height="96"><defs><linearGradient id="g" x1="0" y1="0" x2="0" y2="1"><stop offset="0" stop-color="#b07a1e"/><stop offset="1" stop-color="#4f3410"/></linearGradient><radialGradient id="h" cx=".5" cy=".38" r=".62"><stop offset="0" stop-color="#fff" stop-opacity=".28"/><stop offset="1" stop-color="#fff" stop-opacity="0"/></radialGradient></defs><rect x="2" y="2" width="92" height="92" rx="16" fill="url(#g)"/><rect x="2" y="2" width="92" height="92" rx="16" fill="url(#h)"/><ellipse cx="48" cy="65.6" rx="33.6" ry="5" fill="#000" opacity=".28"/><g stroke-linejoin="round" stroke-width="0.53"><polygon points="43.8,36.6 47.2,28.1 46.4,28.4 43.0,36.8" fill="#45494d" stroke="#1f2123"/><polygon points="41.9,36.1 43.0,36.8 46.4,28.4 45.3,27.7" fill="#7e868d" stroke="#393c3f"/><polygon points="46.1,27.4 45.3,27.7 46.4,28.4 47.2,28.1" fill="#70767d" stroke="#323538"/><polygon points="47.3,39.1 47.9,34.5 47.2,35.3 46.6,39.9" fill="#45494d" stroke="#1f2123"/><polygon points="45.7,39.3 46.6,39.9 47.2,35.3 46.2,34.7" fill="#5a5f65" stroke="#292b2d"/><polygon points="56.9,41.2 58.3,31.7 57.5,32.0 56.0,41.4" fill="#45494d" stroke="#1f2123"/><polygon points="54.8,41.0 56.0,41.4 57.5,32.0 56.3,31.6" fill="#7e868d" stroke="#393c3f"/><polygon points="57.1,31.3 56.3,31.6 57.5,32.0 58.3,31.7" fill="#7a8188" stroke="#373a3d"/><polygon points="46.9,34.0 46.2,34.7 47.2,35.3 47.9,34.5" fill="#838a92" stroke="#3b3e42"/><polygon points="36.0,42.0 38.0,34.3 37.2,34.9 35.1,42.6" fill="#45494d" stroke="#1f2123"/><polygon points="34.0,41.9 35.1,42.6 37.2,34.9 36.0,34.2" fill="#6f767c" stroke="#323538"/><polygon points="36.8,33.6 36.0,34.2 37.2,34.9 38.0,34.3" fill="#7c838a" stroke="#383b3e"/><polygon points="59.3,43.4 59.9,38.8 59.2,39.6 58.6,44.1" fill="#45494d" stroke="#1f2123"/><polygon points="57.7,43.5 58.6,44.1 59.2,39.6 58.3,39.0" fill="#5a5f65" stroke="#292b2d"/><polygon points="69.9,45.5 69.3,35.6 68.5,35.9 69.1,45.7" fill="#45494d" stroke="#1f2123"/><polygon points="67.9,45.7 69.1,45.7 68.5,35.9 67.3,35.8" fill="#7e868d" stroke="#393c3f"/><polygon points="68.1,35.5 67.3,35.8 68.5,35.9 69.3,35.6" fill="#818990" stroke="#3a3e41"/><polygon points="42.2,28.3 13.0,48.6 53.8,63.1 83.0,42.8" fill="#966e44" stroke="#44321f"/><polygon points="58.9,38.2 58.3,39.0 59.2,39.6 59.9,38.8" fill="#838a92" stroke="#3b3e42"/><polygon points="38.7,45.1 39.3,40.5 38.6,41.3 38.1,45.8" fill="#45494d" stroke="#1f2123"/><polygon points="37.1,45.2 38.1,45.8 38.6,41.3 37.7,40.7" fill="#5a5f65" stroke="#292b2d"/><polygon points="49.0,46.6 49.0,37.9 48.2,38.5 48.2,47.2" fill="#45494d" stroke="#1f2123"/><polygon points="47.0,46.8 48.2,47.2 48.2,38.5 47.0,38.1" fill="#6f767c" stroke="#323538"/><polygon points="38.3,39.9 37.7,40.7 38.6,41.3 39.3,40.5" fill="#838a92" stroke="#3b3e42"/><polygon points="47.8,37.5 47.0,38.1 48.2,38.5 49.0,37.9" fill="#878e96" stroke="#3d4044"/><polygon points="28.1,47.2 28.7,40.7 27.9,41.6 27.3,48.1" fill="#45494d" stroke="#1f2123"/><polygon points="26.1,47.4 27.3,48.1 27.9,41.6 26.7,40.9" fill="#5e6369" stroke="#2a2d2f"/><polygon points="71.3,47.6 71.9,43.1 71.2,43.8 70.7,48.4" fill="#45494d" stroke="#1f2123"/><polygon points="69.7,47.8 70.7,48.4 71.2,43.8 70.3,43.3" fill="#5a5f65" stroke="#292b2d"/><polygon points="70.9,42.5 70.3,43.3 71.2,43.8 71.9,43.1" fill="#838a92" stroke="#3b3e42"/><polygon points="50.7,49.3 51.3,44.8 50.7,45.5 50.1,50.1" fill="#45494d" stroke="#1f2123"/><polygon points="27.5,40.0 26.7,40.9 27.9,41.6 28.7,40.7" fill="#848c94" stroke="#3b3f43"/><polygon points="49.1,49.5 50.1,50.1 50.7,45.5 49.7,45.0" fill="#5a5f65" stroke="#292b2d"/><polygon points="62.0,50.9 60.0,41.8 59.2,42.4 61.2,51.5" fill="#45494d" stroke="#1f2123"/><polygon points="60.0,51.4 61.2,51.5 59.2,42.4 58.0,42.3" fill="#6f767c" stroke="#323538"/><polygon points="58.8,41.7 58.0,42.3 59.2,42.4 60.0,41.8" fill="#8d959e" stroke="#3f4347"/><polygon points="50.3,44.2 49.7,45.0 50.7,45.5 51.3,44.8" fill="#838a92" stroke="#3b3e42"/><polygon points="30.1,51.0 30.7,46.5 30.1,47.2 29.5,51.8" fill="#45494d" stroke="#1f2123"/><polygon points="28.5,51.2 29.5,51.8 30.1,47.2 29.1,46.7" fill="#5a5f65" stroke="#292b2d"/><polygon points="83.0,44.3 83.0,42.8 53.8,63.1 53.8,64.6" fill="#4d3923" stroke="#231a10"/><polygon points="41.2,51.8 39.7,44.4 38.9,45.3 40.3,52.7" fill="#45494d" stroke="#1f2123"/><polygon points="39.1,52.3 40.3,52.7 38.9,45.3 37.7,44.8" fill="#5e6369" stroke="#2a2d2f"/><polygon points="29.7,45.9 29.1,46.7 30.1,47.2 30.7,46.5" fill="#838a92" stroke="#3b3e42"/><polygon points="38.5,43.9 37.7,44.8 38.9,45.3 39.7,44.4" fill="#8f97a0" stroke="#404448"/><polygon points="62.7,53.6 63.3,49.0 62.7,49.8 62.1,54.3" fill="#45494d" stroke="#1f2123"/><polygon points="61.1,53.8 62.1,54.3 62.7,49.8 61.7,49.2" fill="#5a5f65" stroke="#292b2d"/><polygon points="13.0,50.1 53.8,64.6 53.8,63.1 13.0,48.6" fill="#7c5b39" stroke="#38291a"/><polygon points="62.3,48.5 61.7,49.2 62.7,49.8 63.3,49.0" fill="#838a92" stroke="#3b3e42"/><polygon points="42.1,55.3 42.7,50.7 42.1,51.5 41.5,56.0" fill="#45494d" stroke="#1f2123"/><polygon points="40.5,55.5 41.5,56.0 42.1,51.5 41.1,50.9" fill="#5a5f65" stroke="#292b2d"/><polygon points="52.2,56.9 53.3,57.1 49.9,49.1 48.8,49.0" fill="#5e6369" stroke="#2a2d2f"/><polygon points="54.1,56.2 50.7,48.2 49.9,49.1 53.3,57.1" fill="#45494d" stroke="#1f2123"/><polygon points="41.8,50.2 41.1,50.9 42.1,51.5 42.7,50.7" fill="#838a92" stroke="#3b3e42"/><polygon points="49.6,48.1 48.8,49.0 49.9,49.1 50.7,48.2" fill="#959ea7" stroke="#43474b"/><polygon points="54.2,59.6 54.7,55.0 54.1,55.8 53.5,60.3" fill="#45494d" stroke="#1f2123"/><polygon points="52.5,59.7 53.5,60.3 54.1,55.8 53.1,55.2" fill="#5a5f65" stroke="#292b2d"/><polygon points="53.8,54.4 53.1,55.2 54.1,55.8 54.7,55.0" fill="#838a92" stroke="#3b3e42"/></g><rect x="3.5" y="3.5" width="89" height="89" rx="14.5" fill="none" stroke="#fff" stroke-opacity=".35" stroke-width="2"/><rect x="1" y="1" width="94" height="94" rx="17" fill="none" stroke="#000" stroke-opacity=".55" stroke-width="2"/></svg>