<svg xmlns="http://www.w3.org/2000/svg" viewBox="0 0 96 96" width="96" height="96"><defs><linearGradient id="g" x1="0" y1="0" x2="0" y2="1"><stop offset="0" stop-color="#2e8a80"/><stop offset="1" stop-color="#13403c"/></linearGradient><radialGradient id="h" cx=".5" cy=".38" r=".62"><stop offset="0" stop-color="#fff" stop-opacity=".28"/><stop offset="1" stop-color="#fff" stop-opacity="0"/></radialGradient></defs><rect x="2" y="2" width="92" height="92" rx="16" fill="url(#g)"/><rect x="2" y="2" width="92" height="92" rx="16" fill="url(#h)"/><ellipse cx="48" cy="80.0" rx="23.0" ry="5" fill="#000" opacity=".28"/><g stroke-linejoin="round" stroke-width="0.89"><polygon points="40.6,52.0 24.0,63.6 55.4,74.7 72.0,63.1" fill="#39312b" stroke="#1a1613"/><polygon points="72.0,67.4 72.0,63.1 55.4,74.7 55.4,79.0" fill="#1d1916" stroke="#0d0b0a"/><polygon points="24.0,67.9 55.4,79.0 55.4,74.7 24.0,63.6" fill="#2f2824" stroke="#151210"/><polygon points="41.5,27.0 27.2,37.0 54.5,46.6 68.8,36.7" fill="#878e96" stroke="#3d4044"/><polygon points="68.8,63.2 68.8,36.7 54.5,46.6 54.5,73.2" fill="#45494d" stroke="#1f2123"/><polygon points="27.2,63.5 54.5,73.2 54.5,46.6 27.2,37.0" fill="#6f767c" stroke="#323538"/><polygon points="46.4,26.9 38.4,32.5 49.6,36.5 57.6,30.9" fill="#39312b" stroke="#1a1613"/><polygon points="57.6,36.9 57.6,30.9 49.6,36.5 49.6,42.5" fill="#1d1916" stroke="#0d0b0a"/><polygon points="38.4,38.5 49.6,42.5 49.6,36.5 38.4,32.5" fill="#2f2824" stroke="#151210"/><polygon points="46.7,61.2 49.9,62.3 49.9,57.2 46.7,56.0" fill="#fffcc1" stroke="#737157"/><polygon points="50.5,61.9 50.5,56.8 49.9,57.2 49.9,62.3" fill="#fffcc1" stroke="#737157"/><polygon points="47.3,55.6 46.7,56.0 49.9,57.2 50.5,56.8" fill="#fffcc1" stroke="#737157"/><polygon points="52.8,30.4 52.8,15.0 48.8,17.8 48.8,33.2" fill="#45494d" stroke="#1f2123"/><polygon points="43.2,31.2 48.8,33.2 48.8,17.8 43.2,15.8" fill="#6f767c" stroke="#323538"/><polygon points="47.2,13.0 43.2,15.8 48.8,17.8 52.8,15.0" fill="#878e96" stroke="#3d4044"/></g><rect x="3.5" y="3.5" width="89" height="89" rx="14.5" fill="none" stroke="#fff" stroke-opacity=".35" stroke-width="2"/><rect x="1" y="1" width="94" height="94" rx="17" fill="none" stroke="#000" stroke-opacity=".55" stroke-width="2"/></svg>