<svg xmlns="http://www.w3.org/2000/svg" viewBox="0 0 96 96" width="96" height="96"><defs><linearGradient id="g" x1="0" y1="0" x2="0" y2="1"><stop offset="0" stop-color="#9a3a32"/><stop offset="1" stop-color="#4a1a18"/></linearGradient><radialGradient id="h" cx=".5" cy=".38" r=".62"><stop offset="0" stop-color="#fff" stop-opacity=".28"/><stop offset="1" stop-color="#fff" stop-opacity="0"/></radialGradient></defs><rect x="2" y="2" width="92" height="92" rx="16" fill="url(#g)"/><rect x="2" y="2" width="92" height="92" rx="16" fill="url(#h)"/><ellipse cx="48" cy="80.0" rx="21.3" ry="5" fill="#000" opacity=".28"/><g stroke-linejoin="round" stroke-width="0.35"><polygon points="46.9,59.6 46.9,27.7 45.3,28.9 45.3,60.7" fill="#372617" stroke="#19110a"/><polygon points="43.0,59.9 45.3,60.7 45.3,28.9 43.0,28.1" fill="#593d25" stroke="#281b11"/><polygon points="49.2,57.9 63.9,43.3 63.1,43.9 48.3,58.5" fill="#372617" stroke="#19110a"/><polygon points="48.3,58.5 63.1,43.9 62.1,42.7 47.4,57.3" fill="#593d25" stroke="#281b11"/><polygon points="43.5,38.7 42.8,38.3 32.3,65.4 33.0,65.8" fill="#372617" stroke="#19110a"/><polygon points="41.6,37.9 31.1,65.0 32.3,65.4 42.8,38.3" fill="#724f30" stroke="#332416"/><polygon points="31.8,65.3 33.0,65.8 32.3,65.4 31.1,65.0" fill="#372617" stroke="#19110a"/><polygon points="44.6,26.9 43.0,28.1 45.3,28.9 46.9,27.7" fill="#6b4a2d" stroke="#302114"/><polygon points="68.3,67.2 68.3,35.3 66.7,36.5 66.7,68.3" fill="#372617" stroke="#19110a"/><polygon points="64.4,67.6 66.7,68.3 66.7,36.5 64.4,35.7" fill="#593d25" stroke="#281b11"/><polygon points="63.9,43.3 63.0,42.1 62.1,42.7 63.1,43.9" fill="#4f3621" stroke="#24180f"/><polygon points="43.9,25.5 68.8,34.3 68.8,22.3 43.9,13.5" fill="#593d25" stroke="#281b11"/><polygon points="31.6,70.3 31.6,38.4 30.0,39.5 30.0,71.4" fill="#372617" stroke="#19110a"/><polygon points="27.7,70.6 30.0,71.4 30.0,39.5 27.7,38.7" fill="#593d25" stroke="#281b11"/><polygon points="34.5,69.2 33.9,69.6 41.6,72.4 42.2,72.0" fill="#6b4a2d" stroke="#302114"/><polygon points="33.9,70.4 41.6,73.2 41.6,72.4 33.9,69.6" fill="#593d25" stroke="#281b11"/><polygon points="45.2,25.3 45.2,13.4 27.4,25.8 27.4,37.7" fill="#372617" stroke="#19110a"/><polygon points="44.6,13.0 43.9,13.5 68.8,22.3 69.5,21.8" fill="#6b4a2d" stroke="#302114"/><polygon points="66.0,34.5 64.4,35.7 66.7,36.5 68.3,35.3" fill="#6b4a2d" stroke="#302114"/><polygon points="55.2,16.1 54.5,16.6 58.2,17.9 58.9,17.4" fill="#878e96" stroke="#3d4044"/><polygon points="54.5,17.4 58.2,18.7 58.2,17.9 54.5,16.6" fill="#6f767c" stroke="#323538"/><polygon points="58.9,18.2 58.9,17.4 58.2,17.9 58.2,18.7" fill="#45494d" stroke="#1f2123"/><polygon points="42.2,72.8 42.2,72.0 41.6,72.4 41.6,73.2" fill="#372617" stroke="#19110a"/><polygon points="33.9,47.9 33.0,48.5 47.8,73.5 48.6,72.9" fill="#422d1c" stroke="#1e140d"/><polygon points="32.1,49.0 46.8,74.0 47.8,73.5 33.0,48.5" fill="#593d25" stroke="#281b11"/><polygon points="32.9,48.4 32.1,49.0 33.0,48.5 33.9,47.9" fill="#714e2f" stroke="#332315"/><polygon points="34.5,63.9 33.9,64.3 41.6,67.1 42.2,66.6" fill="#6b4a2d" stroke="#302114"/><polygon points="33.9,65.1 41.6,67.9 41.6,67.1 33.9,64.3" fill="#593d25" stroke="#281b11"/><polygon points="44.2,13.0 26.4,25.4 27.4,25.8 45.2,13.4" fill="#6b4a2d" stroke="#302114"/><polygon points="44.3,24.8 25.8,37.7 51.7,46.9 70.2,34.0" fill="#966e44" stroke="#44321f"/><polygon points="44.4,24.9 26.6,37.3 51.6,46.1 69.4,33.7" fill="#e2e8ec" stroke="#66686a"/><polygon points="34.8,75.0 34.8,40.5 34.2,40.9 34.2,75.5" fill="#372617" stroke="#19110a"/><polygon points="33.3,75.2 34.2,75.5 34.2,40.9 33.3,40.6" fill="#593d25" stroke="#281b11"/><polygon points="69.5,33.8 69.5,21.8 68.8,22.3 68.8,34.3" fill="#372617" stroke="#19110a"/><polygon points="42.2,67.4 42.2,66.6 41.6,67.1 41.6,67.9" fill="#372617" stroke="#19110a"/><polygon points="29.3,37.6 27.7,38.7 30.0,39.5 31.6,38.4" fill="#6b4a2d" stroke="#302114"/><polygon points="34.5,58.6 33.9,59.0 41.6,61.8 42.2,61.3" fill="#6b4a2d" stroke="#302114"/><polygon points="33.9,59.8 41.6,62.6 41.6,61.8 33.9,59.0" fill="#593d25" stroke="#281b11"/><polygon points="42.2,62.1 42.2,61.3 41.6,61.8 41.6,62.6" fill="#372617" stroke="#19110a"/><polygon points="34.5,53.3 33.9,53.7 41.6,56.4 42.2,56.0" fill="#6b4a2d" stroke="#302114"/><polygon points="33.9,54.5 41.6,57.2 41.6,56.4 33.9,53.7" fill="#593d25" stroke="#281b11"/><polygon points="42.8,77.9 42.8,43.3 42.1,43.8 42.1,78.3" fill="#372617" stroke="#19110a"/><polygon points="41.3,78.0 42.1,78.3 42.1,43.8 41.3,43.4" fill="#593d25" stroke="#281b11"/><polygon points="26.4,37.4 27.4,37.7 27.4,25.8 26.4,25.4" fill="#593d25" stroke="#281b11"/><polygon points="53.0,77.9 53.0,46.0 51.4,47.1 51.4,79.0" fill="#372617" stroke="#19110a"/><polygon points="49.1,78.2 51.4,79.0 51.4,47.1 49.1,46.3" fill="#593d25" stroke="#281b11"/><polygon points="42.2,56.8 42.2,56.0 41.6,56.4 41.6,57.2" fill="#372617" stroke="#19110a"/><polygon points="70.2,35.8 70.2,34.0 51.7,46.9 51.7,48.7" fill="#4d3923" stroke="#231a10"/><polygon points="69.4,34.1 69.4,33.7 51.6,46.1 51.6,46.5" fill="#747779" stroke="#343636"/><polygon points="34.5,48.0 33.9,48.4 41.6,51.1 42.2,50.7" fill="#6b4a2d" stroke="#302114"/><polygon points="33.9,49.2 41.6,51.9 41.6,51.1 33.9,48.4" fill="#593d25" stroke="#281b11"/><polygon points="33.9,40.2 33.3,40.6 34.2,40.9 34.8,40.5" fill="#6b4a2d" stroke="#302114"/><polygon points="42.2,51.5 42.2,50.7 41.6,51.1 41.6,51.9" fill="#372617" stroke="#19110a"/><polygon points="25.8,39.5 51.7,48.7 51.7,46.9 25.8,37.7" fill="#7c5b39" stroke="#38291a"/><polygon points="26.6,37.7 51.6,46.5 51.6,46.1 26.6,37.3" fill="#bbc0c3" stroke="#545658"/><polygon points="34.5,43.3 33.9,43.7 41.6,46.5 42.2,46.0" fill="#6b4a2d" stroke="#302114"/><polygon points="33.9,44.5 41.6,47.3 41.6,46.5 33.9,43.7" fill="#593d25" stroke="#281b11"/><polygon points="69.6,34.0 69.6,22.1 51.8,34.4 51.8,46.4" fill="#372617" stroke="#19110a"/><polygon points="42.2,46.8 42.2,46.0 41.6,46.5 41.6,47.3" fill="#372617" stroke="#19110a"/><polygon points="27.2,24.6 26.5,25.1 36.4,28.6 37.1,28.1" fill="#6b4a2d" stroke="#302114"/><polygon points="26.5,26.2 36.4,29.7 36.4,28.6 26.5,25.1" fill="#593d25" stroke="#281b11"/><polygon points="68.6,21.7 50.8,34.1 51.8,34.4 69.6,22.1" fill="#6b4a2d" stroke="#302114"/><polygon points="41.9,43.0 41.3,43.4 42.1,43.8 42.8,43.3" fill="#6b4a2d" stroke="#302114"/><polygon points="50.7,45.2 49.1,46.3 51.4,47.1 53.0,46.0" fill="#6b4a2d" stroke="#302114"/><polygon points="37.1,29.2 37.1,28.1 36.4,28.6 36.4,29.7" fill="#372617" stroke="#19110a"/><polygon points="50.8,46.0 51.8,46.4 51.8,34.4 50.8,34.1" fill="#593d25" stroke="#281b11"/><polygon points="42.1,29.9 41.4,30.4 51.4,33.9 52.1,33.4" fill="#6b4a2d" stroke="#302114"/><polygon points="41.4,31.5 51.4,35.0 51.4,33.9 41.4,30.4" fill="#593d25" stroke="#281b11"/><polygon points="52.1,34.5 52.1,33.4 51.4,33.9 51.4,35.0" fill="#372617" stroke="#19110a"/></g><rect x="3.5" y="3.5" width="89" height="89" rx="14.5" fill="none" stroke="#fff" stroke-opacity=".35" stroke-width="2"/><rect x="1" y="1" width="94" height="94" rx="17" fill="none" stroke="#000" stroke-opacity=".55" stroke-width="2"/></svg>