<svg xmlns="http://www.w3.org/2000/svg" viewBox="0 0 96 96" width="96" height="96"><defs><linearGradient id="g" x1="0" y1="0" x2="0" y2="1"><stop offset="0" stop-color="#b07a1e"/><stop offset="1" stop-color="#4f3410"/></linearGradient><radialGradient id="h" cx=".5" cy=".38" r=".62"><stop offset="0" stop-color="#fff" stop-opacity=".28"/><stop offset="1" stop-color="#fff" stop-opacity="0"/></radialGradient></defs><rect x="2" y="2" width="92" height="92" rx="16" fill="url(#g)"/><rect x="2" y="2" width="92" height="92" rx="16" fill="url(#h)"/><ellipse cx="48" cy="77.8" rx="33.6" ry="5" fill="#000" opacity=".28"/><g stroke-linejoin="round" stroke-width="0.83"><polygon points="18.9,52.5 18.9,16.4 16.5,18.0 16.5,54.2" fill="#372617" stroke="#19110a"/><polygon points="13.1,53.0 16.5,54.2 16.5,18.0 13.1,16.8" fill="#593d25" stroke="#281b11"/><polygon points="15.5,15.2 13.1,16.8 16.5,18.0 18.9,16.4" fill="#6b4a2d" stroke="#302114"/><polygon points="14.5,40.1 13.8,40.5 81.5,64.6 82.2,64.1" fill="#969ca2" stroke="#444649"/><polygon points="13.8,41.5 81.5,65.6 81.5,64.6 13.8,40.5" fill="#7c8186" stroke="#383a3c"/><polygon points="13.5,40.5 13.0,40.9 82.3,46.6 82.8,46.2" fill="#9ea4aa" stroke="#474a4d"/><polygon points="13.7,21.7 13.2,22.1 82.5,65.5 83.0,65.2" fill="#8a9095" stroke="#3e4143"/><polygon points="14.4,31.2 13.8,31.8 81.5,55.8 82.2,55.3" fill="#999fa5" stroke="#45484a"/><polygon points="13.0,22.8 82.3,66.3 82.5,65.5 13.2,22.1" fill="#7c8186" stroke="#383a3c"/><polygon points="13.2,41.7 82.5,47.5 82.3,46.6 13.0,40.9" fill="#7c8186" stroke="#383a3c"/><polygon points="13.8,32.7 81.6,56.8 81.5,55.8 13.8,31.8" fill="#787d81" stroke="#36383a"/><polygon points="14.5,22.4 13.8,22.9 81.5,46.9 82.2,46.4" fill="#969ca2" stroke="#444649"/><polygon points="13.8,23.9 81.5,47.9 81.5,46.9 13.8,22.9" fill="#7c8186" stroke="#383a3c"/><polygon points="82.2,65.1 82.2,64.1 81.5,64.6 81.5,65.6" fill="#4d5053" stroke="#232425"/><polygon points="82.8,65.9 83.0,65.2 82.5,65.5 82.3,66.3" fill="#4d5053" stroke="#232425"/><polygon points="82.9,75.2 82.9,39.0 80.5,40.7 80.5,76.8" fill="#372617" stroke="#19110a"/><polygon points="77.1,75.6 80.5,76.8 80.5,40.7 77.1,39.5" fill="#593d25" stroke="#281b11"/><polygon points="82.2,56.2 82.2,55.3 81.5,55.8 81.6,56.8" fill="#4d5053" stroke="#232425"/><polygon points="82.2,47.4 82.2,46.4 81.5,46.9 81.5,47.9" fill="#4d5053" stroke="#232425"/><polygon points="83.0,47.1 82.8,46.2 82.3,46.6 82.5,47.5" fill="#4d5053" stroke="#232425"/><polygon points="79.5,37.8 77.1,39.5 80.5,40.7 82.9,39.0" fill="#6b4a2d" stroke="#302114"/></g><rect x="3.5" y="3.5" width="89" height="89" rx="14.5" fill="none" stroke="#fff" stroke-opacity=".35" stroke-width="2"/><rect x="1" y="1" width="94" height="94" rx="17" fill="none" stroke="#000" stroke-opacity=".55" stroke-width="2"/></svg>