# CC0 Majadroid apocalyptic, welded for Zombie Survival
v 2.740 -0.051 -2.773 0.410 0.369 0.307
v 2.186 -0.051 -2.953 0.420 0.240 0.140
v 2.265 0.056 -2.239 0.280 0.238 0.181
v 2.946 -0.051 -2.226 0.344 0.302 0.246
v -2.240 -0.051 -2.985 0.410 0.369 0.307
v -2.751 -0.051 -2.693 0.410 0.369 0.307
v -2.990 -0.051 -2.235 0.410 0.369 0.307
v -2.239 0.010 -2.252 0.287 0.244 0.185
v -1.501 -0.051 -2.998 0.420 0.240 0.140
v -1.416 0.165 -2.238 0.265 0.226 0.171
v -0.736 -0.051 -2.967 0.410 0.369 0.307
v -0.652 0.295 -2.112 0.420 0.240 0.140
v 0.019 -0.051 -2.971 0.410 0.369 0.307
v 0.073 0.208 -2.133 0.260 0.221 0.168
v 0.755 -0.051 -2.996 0.410 0.369 0.307
v 0.792 0.189 -2.163 0.262 0.223 0.169
v 1.516 -0.051 -3.011 0.410 0.369 0.307
v 1.548 0.111 -2.273 0.273 0.232 0.176
v -2.191 0.139 2.196 0.269 0.229 0.174
v -2.994 -0.051 2.246 0.420 0.240 0.140
v -2.848 -0.051 2.863 0.410 0.369 0.307
v -2.240 -0.051 2.999 0.410 0.369 0.307
v -2.230 0.051 1.480 0.281 0.239 0.182
v -3.001 -0.051 1.502 0.420 0.240 0.140
v -2.200 0.134 0.693 0.270 0.229 0.174
v -3.001 -0.051 0.752 0.410 0.369 0.307
v -2.249 0.028 -0.001 0.420 0.240 0.140
v -3.001 -0.051 0.002 0.410 0.369 0.307
v -2.306 0.070 -0.685 0.420 0.240 0.140
v -3.001 -0.051 -0.748 0.410 0.369 0.307
v -2.200 0.113 -1.507 0.420 0.240 0.140
v -3.001 -0.051 -1.498 0.410 0.369 0.307
v -1.335 0.386 2.099 0.235 0.200 0.152
v -1.471 -0.051 3.007 0.410 0.369 0.307
v -1.374 0.319 1.368 0.244 0.208 0.158
v -1.320 0.529 0.487 0.216 0.183 0.139
v -1.527 0.382 0.031 0.198 0.164 0.122
v -1.657 0.365 -0.533 0.420 0.240 0.140
v -1.373 0.351 -1.499 0.202 0.167 0.124
v -0.689 0.144 2.200 0.268 0.228 0.173
v -0.750 -0.051 3.011 0.410 0.369 0.307
v -0.686 0.177 1.461 0.420 0.240 0.140
v -0.640 0.607 0.358 0.172 0.143 0.106
v -0.777 0.541 -0.075 0.214 0.182 0.138
v -0.799 0.481 -0.615 0.222 0.189 0.143
v -0.661 0.252 -1.440 0.213 0.177 0.131
v 0.009 0.014 2.267 0.286 0.243 0.185
v -0.001 -0.051 3.002 0.410 0.369 0.307
v 0.062 0.314 1.443 0.206 0.171 0.127
v 0.000 0.620 0.404 0.203 0.173 0.131
v -0.108 0.568 0.050 0.177 0.147 0.109
v 0.085 0.800 -0.445 0.179 0.152 0.115
v 0.065 0.488 -1.211 0.420 0.240 0.140
v 0.746 0.035 2.233 0.283 0.241 0.183
v 0.749 -0.051 3.002 0.410 0.369 0.307
v 0.760 0.260 1.412 0.252 0.215 0.163
v 0.715 0.509 0.814 0.218 0.186 0.141
v 0.489 0.582 0.295 0.208 0.177 0.135
v 0.678 0.585 -0.395 0.208 0.177 0.134
v 0.804 0.411 -1.208 0.232 0.197 0.150
v 1.523 0.095 2.203 0.275 0.234 0.178
v 1.499 -0.051 3.002 0.410 0.369 0.307
v 1.603 0.453 1.464 0.190 0.158 0.117
v 1.669 0.658 0.913 0.198 0.168 0.128
v 1.609 0.566 -0.109 0.211 0.179 0.136
v 1.625 0.137 -0.861 0.269 0.229 0.174
v 1.574 0.144 -1.455 0.225 0.187 0.139
v 2.253 0.014 2.243 0.286 0.243 0.185
v 2.242 -0.051 2.992 0.410 0.369 0.307
v 2.278 0.108 1.468 0.273 0.232 0.176
v 2.302 0.191 0.832 0.262 0.223 0.169
v 2.307 0.165 -0.057 0.265 0.226 0.171
v 2.295 0.029 -0.768 0.284 0.241 0.183
v 2.265 0.087 -1.443 0.232 0.192 0.143
v 2.992 -0.051 2.242 0.344 0.302 0.246
v 2.833 -0.051 2.766 0.410 0.369 0.307
v 2.999 -0.051 1.502 0.420 0.240 0.140
v 2.999 -0.051 0.752 0.410 0.369 0.307
v 2.999 -0.051 0.002 0.410 0.369 0.307
v 2.999 -0.051 -0.744 0.410 0.369 0.307
v 3.001 -0.051 -1.475 0.410 0.369 0.307
f 1 2 3
f 3 4 1
f 5 6 7
f 7 8 5
f 9 5 8
f 8 10 9
f 11 9 10
f 10 12 11
f 13 11 12
f 12 14 13
f 15 13 14
f 14 16 15
f 17 15 16
f 16 18 17
f 2 17 18
f 18 3 2
f 19 20 21
f 21 22 19
f 23 24 20
f 20 19 23
f 25 26 24
f 24 23 25
f 27 28 26
f 26 25 27
f 29 30 28
f 28 27 29
f 31 32 30
f 30 29 31
f 8 7 32
f 32 31 8
f 33 19 22
f 22 34 33
f 35 23 19
f 19 33 35
f 36 25 23
f 23 35 36
f 37 27 25
f 25 36 37
f 38 29 27
f 27 37 38
f 39 31 29
f 29 38 39
f 10 8 31
f 31 39 10
f 40 33 34
f 34 41 40
f 42 35 33
f 33 40 42
f 43 36 35
f 35 42 43
f 44 37 36
f 36 43 44
f 45 38 37
f 37 44 45
f 46 39 38
f 38 45 46
f 12 10 39
f 39 46 12
f 47 40 41
f 41 48 47
f 49 42 40
f 40 47 49
f 50 43 42
f 42 49 50
f 51 44 43
f 43 50 51
f 52 45 44
f 44 51 52
f 53 46 45
f 45 52 53
f 14 12 46
f 46 53 14
f 54 47 48
f 48 55 54
f 56 49 47
f 47 54 56
f 57 50 49
f 49 56 57
f 58 51 50
f 50 57 58
f 59 52 51
f 51 58 59
f 60 53 52
f 52 59 60
f 16 14 53
f 53 60 16
f 61 54 55
f 55 62 61
f 63 56 54
f 54 61 63
f 64 57 56
f 56 63 64
f 65 58 57
f 57 64 65
f 66 59 58
f 58 65 66
f 67 60 59
f 59 66 67
f 18 16 60
f 60 67 18
f 68 61 62
f 62 69 68
f 70 63 61
f 61 68 70
f 71 64 63
f 63 70 71
f 72 65 64
f 64 71 72
f 73 66 65
f 65 72 73
f 74 67 66
f 66 73 74
f 3 18 67
f 67 74 3
f 75 68 69
f 69 76 75
f 77 70 68
f 68 75 77
f 78 71 70
f 70 77 78
f 79 72 71
f 71 78 79
f 80 73 72
f 72 79 80
f 81 74 73
f 73 80 81
f 4 3 74
f 74 81 4
f 22 21 20
f 20 24 26
f 30 32 7
f 7 6 5
f 5 9 11
f 13 15 17
f 17 2 1
f 1 4 81
f 78 77 75
f 75 76 69
f 69 62 55
f 48 41 34
f 34 22 20
f 20 26 28
f 28 30 7
f 7 5 11
f 13 17 1
f 1 81 80
f 79 78 75
f 75 69 55
f 48 34 20
f 20 28 7
f 7 11 13
f 13 1 80
f 80 79 75
f 75 55 48
f 48 20 7
f 7 13 80
f 80 75 48
f 48 7 80
