# CC0 Majadroid apocalyptic, welded for Zombie Survival
v 2.733 -0.013 -2.783 0.402 0.362 0.301
v 2.186 -0.013 -2.962 0.420 0.240 0.140
v 2.354 0.106 -2.272 0.277 0.236 0.179
v 2.941 -0.013 -2.237 0.338 0.297 0.241
v -2.171 -0.013 -2.929 0.420 0.240 0.140
v -2.740 -0.013 -2.687 0.402 0.362 0.301
v -2.995 -0.013 -2.243 0.402 0.362 0.301
v -2.090 0.085 -2.125 0.279 0.237 0.180
v -1.339 -0.013 -2.863 0.402 0.362 0.301
v -1.107 0.299 -1.978 0.257 0.219 0.166
v -0.637 -0.013 -2.886 0.338 0.297 0.241
v -0.522 0.484 -1.924 0.238 0.203 0.154
v 0.092 -0.013 -2.966 0.402 0.362 0.301
v 0.294 0.339 -2.097 0.420 0.240 0.140
v 0.938 -0.013 -2.673 0.402 0.362 0.301
v 0.971 0.481 -1.828 0.239 0.203 0.154
v 1.625 -0.013 -2.991 0.402 0.362 0.301
v 1.862 0.326 -2.269 0.353 0.197 0.112
v -1.892 0.418 1.803 0.245 0.208 0.158
v -2.846 -0.013 2.043 0.338 0.297 0.241
v -2.735 -0.013 2.704 0.402 0.362 0.301
v -2.092 -0.013 2.795 0.420 0.240 0.140
v -2.038 0.254 1.241 0.420 0.240 0.140
v -2.921 -0.013 1.384 0.402 0.362 0.301
v -2.099 0.390 0.677 0.248 0.211 0.160
v -3.008 -0.013 0.742 0.402 0.362 0.301
v -2.253 0.036 -0.010 0.420 0.240 0.140
v -3.008 -0.013 -0.008 0.402 0.362 0.301
v -2.313 0.068 -0.695 0.420 0.240 0.140
v -3.008 -0.013 -0.758 0.402 0.362 0.301
v -2.139 0.422 -1.332 0.245 0.208 0.158
v -3.008 -0.013 -1.508 0.402 0.362 0.301
v -1.206 0.510 1.920 0.236 0.200 0.152
v -1.390 -0.013 2.878 0.402 0.362 0.301
v -1.278 0.379 1.327 0.209 0.174 0.129
v -0.940 0.410 0.771 0.246 0.209 0.159
v -1.294 0.544 -0.033 0.232 0.197 0.150
v -1.522 0.495 -0.725 0.237 0.202 0.153
v -1.155 0.477 -1.408 0.239 0.203 0.154
v -0.659 0.119 2.238 0.420 0.240 0.140
v -0.672 -0.013 2.767 0.402 0.362 0.301
v -0.587 0.201 1.631 0.267 0.227 0.173
v -0.105 0.810 0.930 0.172 0.143 0.106
v -0.639 1.028 0.215 0.153 0.127 0.094
v -0.490 0.773 -0.925 0.209 0.177 0.135
v -0.649 0.608 -1.426 0.226 0.192 0.146
v 0.065 0.030 2.345 0.285 0.242 0.184
v -0.007 -0.013 2.991 0.420 0.240 0.140
v 0.278 0.408 1.627 0.246 0.209 0.159
v 0.539 0.934 0.506 0.192 0.163 0.124
v 0.424 0.906 0.111 0.195 0.166 0.126
v 0.445 1.066 -0.612 0.420 0.240 0.140
v 0.268 0.654 -1.375 0.221 0.188 0.143
v 0.971 0.437 1.941 0.243 0.207 0.157
v 0.779 -0.013 2.910 0.420 0.240 0.140
v 0.983 0.410 1.372 0.207 0.171 0.127
v 1.055 0.756 0.671 0.177 0.147 0.109
v 0.939 0.917 0.068 0.194 0.165 0.125
v 0.977 0.812 -0.561 0.205 0.174 0.132
v 1.085 0.594 -1.235 0.191 0.158 0.117
v 1.661 0.261 1.865 0.420 0.240 0.140
v 1.567 -0.013 2.822 0.402 0.362 0.301
v 1.677 0.540 1.294 0.195 0.162 0.120
v 1.715 0.700 0.864 0.216 0.184 0.140
v 1.709 0.645 -0.172 0.420 0.240 0.140
v 1.808 0.269 -0.929 0.260 0.221 0.168
v 1.919 0.379 -1.532 0.249 0.212 0.161
v 2.332 0.108 2.041 0.233 0.193 0.143
v 2.277 -0.013 2.888 0.402 0.362 0.301
v 2.315 0.156 1.358 0.272 0.231 0.176
v 2.297 0.191 0.820 0.268 0.228 0.173
v 2.302 0.164 -0.067 0.271 0.230 0.175
v 2.381 0.083 -0.807 0.279 0.238 0.180
v 2.423 0.182 -1.504 0.420 0.240 0.140
v 2.991 -0.013 2.221 0.338 0.297 0.241
v 2.834 -0.013 2.739 0.420 0.240 0.140
v 2.993 -0.013 1.492 0.402 0.362 0.301
v 2.992 -0.013 0.742 0.402 0.362 0.301
v 2.992 -0.013 -0.008 0.402 0.362 0.301
v 2.994 -0.013 -0.754 0.402 0.362 0.301
v 3.008 -0.013 -1.488 0.402 0.362 0.301
f 1 2 3
f 3 4 1
f 5 6 7
f 7 8 5
f 9 5 8
f 8 10 9
f 11 9 10
f 10 12 11
f 13 11 12
f 12 14 13
f 15 13 14
f 14 16 15
f 17 15 16
f 16 18 17
f 2 17 18
f 18 3 2
f 19 20 21
f 21 22 19
f 23 24 20
f 20 19 23
f 25 26 24
f 24 23 25
f 27 28 26
f 26 25 27
f 29 30 28
f 28 27 29
f 31 32 30
f 30 29 31
f 8 7 32
f 32 31 8
f 33 19 22
f 22 34 33
f 35 23 19
f 19 33 35
f 36 25 23
f 23 35 36
f 37 27 25
f 25 36 37
f 38 29 27
f 27 37 38
f 39 31 29
f 29 38 39
f 10 8 31
f 31 39 10
f 40 33 34
f 34 41 40
f 42 35 33
f 33 40 42
f 43 36 35
f 35 42 43
f 44 37 36
f 36 43 44
f 45 38 37
f 37 44 45
f 46 39 38
f 38 45 46
f 12 10 39
f 39 46 12
f 47 40 41
f 41 48 47
f 49 42 40
f 40 47 49
f 50 43 42
f 42 49 50
f 51 44 43
f 43 50 51
f 52 45 44
f 44 51 52
f 53 46 45
f 45 52 53
f 14 12 46
f 46 53 14
f 54 47 48
f 48 55 54
f 56 49 47
f 47 54 56
f 57 50 49
f 49 56 57
f 58 51 50
f 50 57 58
f 59 52 51
f 51 58 59
f 60 53 52
f 52 59 60
f 16 14 53
f 53 60 16
f 61 54 55
f 55 62 61
f 63 56 54
f 54 61 63
f 64 57 56
f 56 63 64
f 65 58 57
f 57 64 65
f 66 59 58
f 58 65 66
f 67 60 59
f 59 66 67
f 18 16 60
f 60 67 18
f 68 61 62
f 62 69 68
f 70 63 61
f 61 68 70
f 71 64 63
f 63 70 71
f 72 65 64
f 64 71 72
f 73 66 65
f 65 72 73
f 74 67 66
f 66 73 74
f 3 18 67
f 67 74 3
f 75 68 69
f 69 76 75
f 77 70 68
f 68 75 77
f 78 71 70
f 70 77 78
f 79 72 71
f 71 78 79
f 80 73 72
f 72 79 80
f 81 74 73
f 73 80 81
f 4 3 74
f 74 81 4
f 22 21 20
f 24 26 28
f 30 32 7
f 7 6 5
f 11 13 15
f 15 17 2
f 2 1 4
f 4 81 80
f 78 77 75
f 75 76 69
f 62 55 48
f 41 34 22
f 22 20 24
f 24 28 30
f 30 7 5
f 9 11 15
f 15 2 4
f 4 80 79
f 79 78 75
f 75 69 62
f 62 48 41
f 41 22 24
f 24 30 5
f 5 9 15
f 15 4 79
f 79 75 62
f 62 41 24
f 24 5 15
f 15 79 62
f 62 24 15
