# CC0 Majadroid apocalyptic, welded for Zombie Survival
v 1.637 0.185 -1.751 0.265 0.225 0.171
v 2.315 -0.016 -2.293 0.338 0.297 0.242
v 1.806 -0.017 -2.538 0.339 0.297 0.242
v -2.025 0.116 -1.066 0.230 0.191 0.141
v -1.223 -0.018 -2.313 0.403 0.363 0.302
v -1.751 -0.018 -2.103 0.353 0.197 0.112
v -0.357 0.177 -1.489 0.266 0.226 0.172
v -1.434 0.322 -1.038 0.353 0.197 0.112
v 0.593 -0.018 -2.346 0.403 0.363 0.302
v -0.413 -0.018 -2.557 0.339 0.297 0.242
v 1.110 0.335 -1.648 0.246 0.209 0.159
v 0.488 0.335 -1.397 0.246 0.209 0.159
v 1.266 -0.018 -2.608 0.339 0.297 0.242
v -1.730 0.329 -0.337 0.207 0.172 0.127
v -2.218 -0.018 -0.326 0.244 0.202 0.150
v -1.706 -0.018 0.284 0.290 0.247 0.187
v -0.708 0.491 -0.442 0.420 0.240 0.140
v -0.663 -0.039 1.496 0.293 0.249 0.189
v -0.140 0.482 1.024 0.420 0.240 0.140
v -0.851 -0.018 1.201 0.290 0.247 0.187
v -0.528 0.867 0.363 0.179 0.152 0.115
v 0.398 0.457 -0.605 0.230 0.196 0.149
v -2.611 -0.018 -1.236 0.290 0.247 0.187
v 0.727 0.340 2.049 0.353 0.197 0.112
v 0.072 0.337 1.526 0.206 0.171 0.127
v -0.071 -0.037 2.206 0.293 0.249 0.189
v 1.074 0.312 0.358 0.420 0.240 0.140
v 0.006 0.631 0.331 0.175 0.145 0.108
v 0.947 0.454 -0.308 0.231 0.196 0.149
v 0.958 0.489 -0.680 0.226 0.192 0.146
v 0.796 -0.018 2.554 0.290 0.247 0.187
v 1.558 0.166 1.853 0.267 0.227 0.172
v 1.512 0.364 1.244 0.242 0.206 0.156
v 0.749 0.536 1.644 0.220 0.187 0.142
v 1.640 0.016 0.469 0.353 0.197 0.112
v 1.348 0.271 -0.909 0.254 0.216 0.164
v 1.622 -0.053 2.608 0.295 0.251 0.190
v 2.382 -0.018 1.964 0.290 0.247 0.187
v 2.394 -0.010 1.198 0.420 0.240 0.140
v 2.611 -0.006 -0.427 0.401 0.361 0.301
v 1.551 0.190 -0.515 0.264 0.224 0.171
v 2.529 0.000 -0.990 0.336 0.295 0.240
v 2.499 0.002 -1.736 0.400 0.360 0.300
v 2.505 -0.018 0.397 0.420 0.240 0.140
f 1 2 3
f 4 5 6
f 7 5 8
f 7 9 10
f 11 9 12
f 11 3 13
f 14 4 15
f 16 17 14
f 17 8 14
f 18 19 20
f 19 21 20
f 21 22 17
f 17 12 7
f 4 23 15
f 24 25 26
f 25 27 19
f 27 28 19
f 29 22 28
f 30 12 22
f 31 32 24
f 24 33 34
f 34 35 27
f 35 29 27
f 29 36 30
f 30 1 11
f 37 38 32
f 32 39 33
f 39 35 33
f 35 40 41
f 41 42 36
f 36 43 1
f 40 44 9
f 1 43 2
f 23 4 6
f 4 8 5
f 7 10 5
f 7 12 9
f 11 13 9
f 11 1 3
f 16 14 15
f 14 8 4
f 16 21 17
f 17 7 8
f 21 16 20
f 26 25 18
f 18 25 19
f 19 28 21
f 21 28 22
f 17 22 12
f 31 24 26
f 24 34 25
f 25 34 27
f 27 29 28
f 29 30 22
f 30 11 12
f 31 37 32
f 24 32 33
f 34 33 35
f 35 41 29
f 29 41 36
f 30 36 1
f 32 38 39
f 39 44 35
f 35 44 40
f 41 40 42
f 36 42 43
f 5 10 9
f 9 13 42
f 13 3 43
f 3 2 43
f 43 42 13
f 42 40 9
